<?xml version="1.0" encoding="UTF-8" standalone="no"?>
<!-- Created with Inkscape (http://www.inkscape.org/) -->

<svg
   version="1.1"
   id="svg4713"
   xml:space="preserve"
   width="682.66669"
   height="682.66669"
   viewBox="0 0 682.66669 682.66669"
   xmlns="http://www.w3.org/2000/svg"
   xmlns:svg="http://www.w3.org/2000/svg"><defs
     id="defs4717"><clipPath
       clipPathUnits="userSpaceOnUse"
       id="clipPath4727"><path
         d="M 0,512 H 512 V 0 H 0 Z"
         id="path4725" /></clipPath></defs><g
     id="g4719"
     transform="matrix(1.3333333,0,0,-1.3333333,0,682.66667)"><g
       id="g4721"><g
         id="g4723"
         clip-path="url(#clipPath4727)"><g
           id="g4729"
           transform="translate(74.7969,377.9561)"><path
             d="m 0,0 c -0.824,-4.997 -1.414,-10.139 -1.759,-15.425 -1.193,-18.292 -9.078,-27.131 -10.859,-34.78 -2.164,-9.292 7.715,-18.834 11.66,-28.013 1.652,-3.845 1.382,-8.278 -0.668,-11.928 -8.13,-14.472 -18.333,-24.317 -30.538,-33.712 -7.11,-5.475 -12.536,-10.368 -12.518,-18.891 0.023,-9.942 6.247,-16.438 19.607,-20.546 25.593,-7.871 -5.349,-27.934 -5.349,-27.934 0,0 -4.287,-6.172 2.718,-11.758 8.261,-6.586 12.004,-11.464 12.004,-11.464 -12.64,-9.113 -5.772,-19.179 -5.772,-19.179 0,0 6.556,-1.398 11.652,-4.927 2.55,-1.764 4.119,-5.952 2.351,-9.112 -3.281,-5.864 -7.754,-12.888 -4.703,-25.281 4.703,-19.108 20.735,-26.175 36.818,-28.808 11.284,-1.846 34.65,2.069 58.425,5.291 43.228,5.859 62.405,-31.054 74.736,-61.429 3.795,-9.349 13.924,-14.437 23.693,-11.918 l 149.07,38.425 c 11.586,2.987 18.012,15.342 13.851,26.56 -2.315,6.241 -4.69,13.025 -6.902,20.041"
             style="fill:none;stroke:#fff;stroke-width:15;stroke-linecap:round;stroke-linejoin:round;stroke-miterlimit:10;stroke-dasharray:none;stroke-opacity:1"
             id="path4731" /></g><g
           id="g4733"
           transform="translate(403.9258,127)"><path
             d="m 0,0 c -3.146,19.336 -2.311,36.665 7.276,45.341 60.1,54.389 70.683,84.643 70.683,155.194 0,127.873 -125.607,176.965 -227.894,176.965 -73.983,0 -142.522,-31.5 -169.363,-92.986"
             style="fill:none;stroke:#fff;stroke-width:15;stroke-linecap:round;stroke-linejoin:round;stroke-miterlimit:10;stroke-dasharray:none;stroke-opacity:1"
             id="path4735" /></g><g
           id="g4737"
           transform="translate(299.6572,216.2627)"><path
             d="m 0,0 c 3.817,-3.06 8.46,-5.197 13.638,-6.018 3.517,-0.556 6.986,-0.457 10.285,0.206 5.782,-7.001 14.037,-12.008 23.711,-13.541 21.06,-3.335 40.838,11.034 44.173,32.094 0.426,2.69 0.563,5.359 0.434,7.975"
             style="fill:none;stroke:#fff;stroke-width:15;stroke-linecap:round;stroke-linejoin:round;stroke-miterlimit:10;stroke-dasharray:none;stroke-opacity:1"
             id="path4739" /></g><g
           id="g4741"
           transform="translate(293.6191,235.7891)"><path
             d="m 0,0 19.494,-63.437 c 1.557,-5.066 -2.735,-10.01 -7.97,-9.181 l -24.454,3.873 c -5.553,0.88 -10.243,4.598 -12.365,9.805 L -49.723,0.98"
             style="fill:none;stroke:#fff;stroke-width:15;stroke-linecap:round;stroke-linejoin:round;stroke-miterlimit:10;stroke-dasharray:none;stroke-opacity:1"
             id="path4743" /></g><g
           id="g4745"
           transform="translate(247.8896,458.2031)"><path
             d="m 0,0 c -10.341,-3.598 -19.474,-10.09 -26.271,-18.655 -4.26,2.307 -8.972,3.951 -14.03,4.752 -23.566,3.733 -45.704,-12.062 -49.97,-35.407 -21.055,-3.781 -38.385,-20.474 -41.92,-42.794 -1.852,-11.693 0.381,-23.084 5.63,-32.74 -3.975,-5.535 -6.761,-12.051 -7.901,-19.241 -3.9,-24.63 12.903,-47.759 37.533,-51.66 14.725,-2.332 28.907,2.739 38.768,12.458"
             style="fill:none;stroke:#fff;stroke-width:15;stroke-linecap:round;stroke-linejoin:round;stroke-miterlimit:10;stroke-dasharray:none;stroke-opacity:1"
             id="path4747" /></g><g
           id="g4749"
           transform="translate(331.7959,249.5869)"><path
             d="m 0,0 c 8.234,-7.904 18.882,-13.461 31.01,-15.382 31.59,-5.003 61.256,16.55 66.259,48.141 2.397,15.134 -1.304,29.824 -9.281,41.574 8.559,7.278 14.665,17.523 16.561,29.489 4.212,26.593 -13.932,51.566 -40.525,55.778 -0.125,0.019 -0.249,0.031 -0.373,0.049 -4.673,18.283 -19.795,32.959 -39.617,36.099 -14.936,2.365 -29.361,-2.322 -39.884,-11.599 -7.348,12.055 -19.062,21.357 -33.344,25.423"
             style="fill:none;stroke:#fff;stroke-width:15;stroke-linecap:round;stroke-linejoin:round;stroke-miterlimit:10;stroke-dasharray:none;stroke-opacity:1"
             id="path4751" /></g><g
           id="g4753"
           transform="translate(181.9365,325.2305)"><path
             d="m 0,0 c -5.903,-3.935 -9.937,-10.514 -10.331,-18.144 -0.589,-11.402 7.15,-21.301 17.891,-23.811 -1.516,-18.897 11.75,-36.069 30.788,-39.085 4.927,-0.78 9.78,-0.536 14.344,0.569 4.333,-5.724 10.794,-9.851 18.446,-11.063 9.622,-1.524 18.879,1.913 25.183,8.412 4.738,-3.176 10.217,-5.405 16.22,-6.357 19.727,-3.125 38.371,8.54 44.674,26.783"
             style="fill:none;stroke:#fff;stroke-width:15;stroke-linecap:round;stroke-linejoin:round;stroke-miterlimit:10;stroke-dasharray:none;stroke-opacity:1"
             id="path4755" /></g><g
           id="g4757"
           transform="translate(306.2715,299.2607)"><path
             d="m 0,0 -19.123,-19.095 c -4.207,-4.201 -11.022,-4.201 -15.229,0 l -52.439,52.363 c -2.813,2.79 -9.905,10.643 -9.904,24.67 10e-4,20.936 16.971,37.908 37.907,37.908 13.553,0 25.349,-7.113 32.05,-17.808 6.702,10.695 18.506,17.808 32.058,17.808 20.912,0 37.885,-17.789 37.9,-38.702 0.008,-11.306 -6.712,-20.271 -9.819,-23.783 -0.052,-0.058 -0.103,-0.112 -0.159,-0.168 l -8.393,-8.381"
             style="fill:none;stroke:#fff;stroke-width:15;stroke-linecap:round;stroke-linejoin:round;stroke-miterlimit:10;stroke-dasharray:none;stroke-opacity:1"
             id="path4759" /></g></g></g></g></svg>
