<?xml version="1.0" encoding="UTF-8" standalone="no"?>
<!-- Created with Inkscape (http://www.inkscape.org/) -->

<svg
   version="1.1"
   id="svg1179"
   xml:space="preserve"
   width="682.66669"
   height="682.66669"
   viewBox="0 0 682.66669 682.66669"
   xmlns="http://www.w3.org/2000/svg"
   xmlns:svg="http://www.w3.org/2000/svg"><defs
     id="defs1183"><clipPath
       clipPathUnits="userSpaceOnUse"
       id="clipPath1193"><path
         d="M 0,512 H 512 V 0 H 0 Z"
         id="path1191" /></clipPath></defs><g
     id="g1185"
     transform="matrix(1.3333333,0,0,-1.3333333,0,682.66667)"><g
       id="g1187"><g
         id="g1189"
         clip-path="url(#clipPath1193)"><g
           id="g1195"
           transform="translate(71.7124,108.0615)"><path
             d="m 0,0 95.581,94.332 32.032,-31.615 -152.948,-150.951 -38.877,-6.755 6.844,38.37 32.342,31.919"
             style="fill:none;stroke:#fff;stroke-width:15;stroke-linecap:round;stroke-linejoin:round;stroke-miterlimit:10;stroke-dasharray:none;stroke-opacity:1"
             id="path1197" /></g><g
           id="g1199"
           transform="translate(333.2246,89.1836)"><path
             d="m 0,0 c -3.481,-11.594 -9.859,-22.521 -19.132,-31.673 l -256.933,253.577 c 29.694,29.307 77.838,29.307 107.533,0.001 L -19.131,74.455 C -6.604,62.091 0.638,46.486 2.595,30.375"
             style="fill:none;stroke:#fff;stroke-width:15;stroke-linecap:round;stroke-linejoin:round;stroke-miterlimit:10;stroke-dasharray:none;stroke-opacity:1"
             id="path1201" /></g><g
           id="g1203"
           transform="translate(343.3125,438.1377)"><path
             d="m 0,0 c -67.535,-98.238 -178.62,-127.049 -178.62,-127.049 l 149.401,-147.45 c 0,0 30.073,108.764 129.612,175.417 z"
             style="fill:none;stroke:#fff;stroke-width:15;stroke-linecap:round;stroke-linejoin:round;stroke-miterlimit:10;stroke-dasharray:none;stroke-opacity:1"
             id="path1205" /></g><g
           id="g1207"
           transform="translate(394.4165,448.4902)"><path
             d="m 0,0 110.083,-108.646 c -17.008,-16.786 -44.585,-16.786 -61.594,0 l -99.593,98.293 c -17.009,16.787 -17.009,44.003 0,60.79 l 27.67,-27.309"
             style="fill:none;stroke:#fff;stroke-width:15;stroke-linecap:round;stroke-linejoin:round;stroke-miterlimit:10;stroke-dasharray:none;stroke-opacity:1"
             id="path1209" /></g></g></g></g></svg>
