<?xml version="1.0" encoding="UTF-8" standalone="no"?>
<!-- Created with Inkscape (http://www.inkscape.org/) -->

<svg
   version="1.1"
   id="svg489"
   xml:space="preserve"
   width="682.66669"
   height="682.66669"
   viewBox="0 0 682.66669 682.66669"
   xmlns="http://www.w3.org/2000/svg"
   xmlns:svg="http://www.w3.org/2000/svg"><defs
     id="defs493"><clipPath
       clipPathUnits="userSpaceOnUse"
       id="clipPath503"><path
         d="M 0,512 H 512 V 0 H 0 Z"
         id="path501" /></clipPath></defs><g
     id="g495"
     transform="matrix(1.3333333,0,0,-1.3333333,0,682.66667)"><g
       id="g497"><g
         id="g499"
         clip-path="url(#clipPath503)"><g
           id="g505"
           transform="translate(350,120.0059)"><path
             d="M 0,0 H 16.5 C 47.103,0 72,24.897 72,55.5 v 97 C 72,183.103 47.103,208 16.5,208 H 0"
             style="fill:none;stroke:#fff;stroke-width:20;stroke-linecap:round;stroke-linejoin:round;stroke-miterlimit:10;stroke-dasharray:none;stroke-opacity:1"
             id="path507" /></g><g
           id="g509"
           transform="translate(350,376.0059)"><path
             d="M 0,0 H 16.5 C 73.57,0 120,-46.43 120,-103.5 v -97 C 120,-257.57 73.57,-304 16.5,-304 H 0"
             style="fill:none;stroke:#fff;stroke-width:20;stroke-linecap:round;stroke-linejoin:round;stroke-miterlimit:10;stroke-dasharray:none;stroke-opacity:1"
             id="path511" /></g><g
           id="g513"
           transform="translate(350,397.9941)"><path
             d="m 0,0 v -344 c 0,-24.301 -19.699,-44 -44,-44 h -220 c -24.301,0 -44,19.699 -44,44 V 0 h 175.846"
             style="fill:none;stroke:#fff;stroke-width:20;stroke-linecap:round;stroke-linejoin:round;stroke-miterlimit:10;stroke-dasharray:none;stroke-opacity:1"
             id="path515" /></g><g
           id="g517"
           transform="translate(350,384.0059)"><path
             d="m 0,0 v -276 c 0,-24.301 -19.699,-44 -44,-44 h -220 c -24.301,0 -44,19.699 -44,44 V 0"
             style="fill:none;stroke:#fff;stroke-width:20;stroke-linecap:round;stroke-linejoin:round;stroke-miterlimit:10;stroke-dasharray:none;stroke-opacity:1"
             id="path519" /></g><g
           id="g521"
           transform="translate(104.1378,315.2903)"><path
             d="M 0,0 H -62.138"
             style="fill:none;stroke:#fff;stroke-width:20;stroke-linecap:round;stroke-linejoin:round;stroke-miterlimit:10;stroke-dasharray:none;stroke-opacity:1"
             id="path523" /></g><g
           id="g525"
           transform="translate(296,315.2903)"><path
             d="M 0,0 H -101.862"
             style="fill:none;stroke:#fff;stroke-width:20;stroke-linecap:round;stroke-linejoin:round;stroke-miterlimit:10;stroke-dasharray:none;stroke-opacity:1"
             id="path527" /></g><g
           id="g529"
           transform="translate(106,108.058)"><path
             d="m 0,0 v 0 c -12.15,0 -22,9.85 -22,22 v 119.18 c 0,12.151 9.85,22 22,22 v 0 c 12.15,0 22,-9.849 22,-22 V 22 C 22,9.85 12.15,0 0,0 Z"
             style="fill:none;stroke:#fff;stroke-width:20;stroke-linecap:round;stroke-linejoin:round;stroke-miterlimit:10;stroke-dasharray:none;stroke-opacity:1"
             id="path531" /></g><g
           id="g533"
           transform="translate(194,108.058)"><path
             d="m 0,0 v 0 c -12.15,0 -22,9.85 -22,22 v 119.18 c 0,12.151 9.85,22 22,22 v 0 c 12.15,0 22,-9.849 22,-22 V 22 C 22,9.85 12.15,0 0,0 Z"
             style="fill:none;stroke:#fff;stroke-width:20;stroke-linecap:round;stroke-linejoin:round;stroke-miterlimit:10;stroke-dasharray:none;stroke-opacity:1"
             id="path535" /></g><g
           id="g537"
           transform="translate(282,108.058)"><path
             d="m 0,0 v 0 c -12.15,0 -22,9.85 -22,22 v 119.18 c 0,12.151 9.85,22 22,22 v 0 c 12.15,0 22,-9.849 22,-22 V 22 C 22,9.85 12.15,0 0,0 Z"
             style="fill:none;stroke:#fff;stroke-width:20;stroke-linecap:round;stroke-linejoin:round;stroke-miterlimit:10;stroke-dasharray:none;stroke-opacity:1"
             id="path539" /></g><g
           id="g541"
           transform="translate(350,422.0059)"><path
             d="m 0,0 c 0,22.091 -17.909,40 -40,40 -8.083,0 -15.6,-2.405 -21.891,-6.528 -7.108,8.017 -17.137,13.282 -28.417,14.337 -9.449,0.883 -18.347,-1.261 -25.839,-5.573 C -128.326,64.725 -152.128,80 -179.5,80 c -27.379,0 -51.186,-15.283 -63.362,-37.782 -8.871,5.106 -19.701,7.19 -31.096,4.79 -18.018,-3.794 -31.576,-18.913 -33.729,-37.2 -1.492,-12.679 2.398,-24.366 10.528,-33.916"
             style="fill:none;stroke:#fff;stroke-width:20;stroke-linecap:round;stroke-linejoin:round;stroke-miterlimit:10;stroke-dasharray:none;stroke-opacity:1"
             id="path543" /></g><g
           id="g545"
           transform="translate(217.8457,397.9941)"><path
             d="m 0,0 c 16.177,0 29.292,-13.323 29.292,-29.5 v -27.488 c 0,-14.203 11.513,-25.716 25.715,-25.716 14.203,0 25.716,11.514 25.716,25.716 v -68.285 c 0,-14.202 11.513,-25.715 25.715,-25.715 h 10e-4 c 14.202,0 25.715,11.513 25.715,25.715 V 24.012"
             style="fill:none;stroke:#fff;stroke-width:20;stroke-linecap:round;stroke-linejoin:round;stroke-miterlimit:10;stroke-dasharray:none;stroke-opacity:1"
             id="path547" /></g><g
           id="g549"
           transform="translate(149.1378,315.2903)"><path
             d="M 0,0 V 0"
             style="fill:none;stroke:#fff;stroke-width:20;stroke-linecap:round;stroke-linejoin:round;stroke-miterlimit:10;stroke-dasharray:none;stroke-opacity:1"
             id="path551" /></g></g></g></g></svg>
