<?xml version="1.0" encoding="UTF-8"?>
<svg id="Capa_2" data-name="Capa 2" xmlns="http://www.w3.org/2000/svg" viewBox="0 0 187.69 40.95">
  <defs>
    <style>
      .cls-1 {
        fill: #fff;
        stroke-width: 0px;
      }
    </style>
  </defs>
  <g id="Capa_1-2" data-name="Capa 1">
    <g>
      <path class="cls-1" d="M161.87,26.38c0-2.07-.01-4.15,0-6.22,0-.4-.14-.58-.5-.72-1.88-.69-3.83-.91-5.8-.64-2.19.3-3.45,1.5-3.96,3.65-.09.4-.17.81-.23,1.22-.27,2.03-.27,4.06-.13,6.1.07,1.07.24,2.13.63,3.15.6,1.56,1.67,2.58,3.36,2.8.73.09,1.49.1,2.22.02,1.7-.18,3.13-.93,4.13-2.35.16-.22.25-.54.25-.81.02-2.06.01-4.12.01-6.19M153.74,40.95c-.56-.1-1.13-.18-1.69-.31-3.39-.82-5.49-3.01-6.6-6.24-.53-1.56-.79-3.17-.9-4.8-.15-2.22-.1-4.44.31-6.63.44-2.35,1.28-4.53,2.98-6.29,1.22-1.26,2.7-2.08,4.37-2.58,2.18-.65,4.4-.69,6.64-.56,2.03.12,4.03.46,5.95,1.14,1.08.38,2.1.91,3.15,1.37.35.15.46.39.46.77-.01,5.37-.01,10.74,0,16.1,0,.41.02.83.06,1.24.13,1.15.73,1.69,1.89,1.72.45,0,.9-.05,1.35-.05.47,0,.75.19.84.66.16.89.28,1.78.4,2.67.09.61-.2,1.04-.72,1.26-.47.2-.97.31-1.46.45-.1.03-.21.05-.32.08h-2.57c-.09-.03-.18-.06-.28-.08-1.85-.38-3.12-1.44-3.77-3.21-.02-.05-.06-.09-.09-.15-.05.03-.09.05-.11.07-1.36,1.51-3.05,2.45-5,2.97-.65.17-1.31.27-1.97.41h-2.93Z"/>
      <path class="cls-1" d="M30.32,25.2c1.61,0,3.22,0,4.84,0,.28,0,.41-.09.38-.38-.05-.66-.05-1.32-.15-1.97-.21-1.33-.71-2.52-1.84-3.33-1.05-.75-2.25-.89-3.5-.83-2.49.12-4.03,1.38-4.58,3.81-.17.74-.17,1.52-.27,2.28-.05.34.07.42.39.41,1.58-.01,3.15,0,4.73,0M29.98,40.95c-.72-.09-1.45-.17-2.17-.29-1.62-.26-3.17-.74-4.57-1.6-1.84-1.12-3.05-2.75-3.77-4.75-.58-1.6-.83-3.26-.94-4.94-.13-2-.1-4,.23-5.98.3-1.83.84-3.58,1.85-5.17,1.4-2.19,3.39-3.59,5.88-4.25,2.64-.69,5.3-.7,7.94-.05,3.61.89,5.82,3.24,6.82,6.76.66,2.31.82,4.68.6,7.06-.03.28-.1.56-.19.82-.32.92-.93,1.31-2.09,1.32-2,0-4.01,0-6.01,0-2.64,0-5.28,0-7.92,0-.51,0-.52.01-.46.52.05.46.08.92.16,1.38.33,1.89,1.47,3.06,3.28,3.59,1.58.46,3.2.49,4.83.42,1.76-.08,3.46-.44,5.13-.98.78-.25,1.04-.18,1.41.55.39.78.68,1.61.98,2.43.16.43.02.84-.34,1.12-.39.3-.81.59-1.26.8-1.43.64-2.96.9-4.5,1.1-.34.04-.67.09-1.01.14h-3.89Z"/>
      <path class="cls-1" d="M86.8,27.29h.09c0,.8-.07,1.61.02,2.41.1.98.25,1.96.51,2.91.48,1.73,1.63,2.78,3.44,3.07,1.18.19,2.36.19,3.53-.02,1.56-.29,2.65-1.16,3.17-2.66.24-.69.41-1.41.51-2.13.29-2,.3-4.01.14-6.02-.08-.98-.25-1.96-.5-2.91-.47-1.75-1.61-2.87-3.44-3.1-.95-.12-1.92-.14-2.88-.07-2.23.15-3.5,1.25-4.08,3.4-.46,1.68-.46,3.4-.51,5.12M90.69,40.95c-.64-.1-1.28-.17-1.91-.29-1.51-.29-2.94-.8-4.22-1.7-1.66-1.16-2.74-2.76-3.42-4.64-.57-1.57-.84-3.2-.95-4.87-.16-2.44-.12-4.87.38-7.28.36-1.75.98-3.4,2.07-4.84,1.3-1.69,3.02-2.77,5.07-3.28,3.43-.85,6.88-.87,10.27.18,2.97.92,4.91,2.95,5.97,5.85.59,1.62.87,3.3.98,5.01.15,2.41.1,4.8-.38,7.17-.36,1.76-.98,3.43-2.09,4.87-1.47,1.91-3.47,2.96-5.79,3.44-.74.15-1.49.25-2.24.37h-3.74Z"/>
      <path class="cls-1" d="M0,15.03c.29-.81.91-1.08,1.73-1.04.71.03,1.42,0,2.13,0,.3,0,.39-.1.4-.4.06-1.53.07-3.07.23-4.6.21-1.99.77-3.88,1.96-5.53C7.77,1.62,9.63.64,11.83.24c1.62-.29,3.26-.28,4.89-.17.64.04,1.29.13,1.92.24.27.04.54.15.79.28.39.2.62.53.59.98-.06.92-.11,1.85-.22,2.77-.11.88-.42,1.08-1.31,1.02-.91-.05-1.83-.11-2.74-.11-1.01,0-1.99.17-2.88.72-1.05.65-1.57,1.64-1.85,2.79-.31,1.24-.26,2.52-.28,3.78,0,.35.01.71,0,1.06-.02.3.1.41.4.4,1.26-.01,2.52,0,3.77,0,.6,0,1.2,0,1.8,0,.92.02,1.38.4,1.45,1.31.06.9.06,1.8,0,2.7-.05.83-.48,1.24-1.33,1.27-1.32.05-2.64.04-3.95.06-.6,0-1.2,0-1.8,0-.25,0-.36.1-.34.35,0,.12,0,.24,0,.37,0,6.11,0,12.22,0,18.34,0,.16,0,.32,0,.48,0,1.16-.43,1.59-1.59,1.59-1.12,0-2.25,0-3.37,0-.98,0-1.43-.44-1.5-1.41-.01-.17,0-.34,0-.51v-18.59q0-.59-.58-.59c-.71,0-1.42,0-2.12-.02-.76,0-1.33-.29-1.55-1.07v-3.22Z"/>
      <path class="cls-1" d="M181.96,40.95c-.6-.12-1.2-.21-1.79-.37-2.71-.74-4.11-2.65-4.66-5.3-.28-1.34-.38-2.7-.38-4.07,0-9.41,0-18.81,0-28.22,0-1.13.25-1.51,1.34-1.84,1.29-.39,2.59-.72,3.88-1.08.13-.04.26-.05.4-.06.61-.03.82.15.9.75.03.23.02.46.02.69,0,10.05,0,20.11.02,30.16,0,.63.07,1.27.19,1.89.31,1.62,1.16,2.32,2.82,2.36.52.01,1.05-.05,1.57-.06.74,0,.96.19,1.07.91.12.76.23,1.52.34,2.28.11.74-.13,1.22-.82,1.49-.46.18-.96.26-1.45.38-.09.02-.19.05-.28.07h-3.15Z"/>
      <path class="cls-1" d="M118.82,32.01c.32-.94.65-1.89.97-2.83,1.57-4.59,3.13-9.19,4.7-13.78.39-1.15.79-1.4,2.01-1.4,1.14,0,2.27.04,3.41,0,.87-.04,1.47.74,1.13,1.59-1.69,4.2-3.32,8.42-4.98,12.63-1.42,3.62-2.85,7.24-4.28,10.86-.05.14-.11.27-.17.41-.27.68-.74,1.02-1.49.99-.99-.03-1.98-.04-2.97,0-.96.04-1.54-.43-1.87-1.28-.46-1.16-.91-2.32-1.36-3.48-2.57-6.58-5.15-13.15-7.71-19.73-.1-.25-.18-.51-.21-.77-.09-.68.29-1.18.97-1.19,1.56-.03,3.13-.03,4.69,0,.6,0,1.08.33,1.33.89.19.42.36.85.5,1.29,1.7,5.15,3.4,10.31,5.1,15.46.04.12.09.24.13.36.03,0,.06,0,.09-.01"/>
      <path class="cls-1" d="M46.18,28.21c0-3.52,0-7.05,0-10.57,0-.33.1-.54.37-.73,2.67-1.95,5.66-3.05,8.94-3.35,1.49-.14,2.98-.15,4.46.09.34.05.68.18,1,.33.35.17.51.48.44.88-.17,1.02-.33,2.05-.53,3.06-.15.75-.44.96-1.2.93-.8-.04-1.61-.14-2.41-.14-1.46,0-2.85.34-4.16,1-.28.14-.39.31-.39.62.02,1.23,0,2.46,0,3.69-.01,4.9-.03,9.81-.04,14.71,0,.18,0,.37-.02.55-.07.7-.52,1.15-1.23,1.16-1.32.02-2.64.02-3.96,0-.71,0-1.09-.37-1.21-1.08-.04-.25-.05-.51-.05-.76,0-3.46,0-6.93,0-10.39"/>
      <path class="cls-1" d="M64.07,28.28c0-3.55,0-7.1,0-10.65,0-.32.09-.54.36-.74,2.47-1.8,5.23-2.87,8.26-3.27,1.69-.22,3.38-.22,5.08,0,.02,0,.05,0,.07,0,1.28.21,1.54.54,1.35,1.81-.12.78-.26,1.56-.42,2.34-.19.92-.45,1.11-1.39,1.05-.76-.04-1.51-.14-2.26-.13-1.46,0-2.85.35-4.16,1.01-.31.16-.41.35-.41.68,0,6.06,0,12.13,0,18.19,0,.31,0,.64-.08.94-.13.56-.53.9-1.1.91-1.38.02-2.76.02-4.14,0-.58-.01-.96-.36-1.08-.92-.06-.27-.07-.56-.07-.83,0-3.46,0-6.93,0-10.39h0Z"/>
      <path class="cls-1" d="M134.02,27.22c0-3.76,0-7.51,0-11.27,0-.29.02-.59.07-.87.12-.66.58-1.07,1.24-1.08,1.28-.02,2.57-.02,3.85,0,.69,0,1.15.41,1.27,1.09.05.26.07.53.07.8,0,7.56,0,15.12,0,22.69,0,.07,0,.15,0,.22-.03,1.23-.47,1.66-1.7,1.66-1.1,0-2.2,0-3.3,0-.96,0-1.36-.36-1.48-1.3-.03-.23-.04-.46-.04-.69,0-3.75,0-7.49,0-11.23"/>
      <path class="cls-1" d="M137.24,10.35c-2.21,0-3.83-1.66-3.83-3.89,0-2.23,1.58-3.77,3.87-3.79,2.07-.01,3.92,1.81,3.92,3.86s-1.79,3.82-3.96,3.82"/>
    </g>
  </g>
</svg>