<?xml version="1.0" encoding="UTF-8"?>
<svg id="Capa_2" data-name="Capa 2" xmlns="http://www.w3.org/2000/svg" viewBox="0 0 148.67 59.14">
  <defs>
    <style>
      .cls-1 {
        fill: #fff;
        stroke-width: 0px;
      }
    </style>
  </defs>
  <g id="Capa_1-2" data-name="Capa 1">
    <path class="cls-1" d="M74.32,33.83s-.06-.01-.08-.02c-1.06,3.74-2.12,7.47-3.19,11.24h2.97q.42,0,.42-.41c-.04-3.5-.08-7.01-.12-10.51,0-.1,0-.2,0-.3M96.94,34.29s-.06-.02-.08-.03c-2.29,3.58-4.58,7.16-6.9,10.77h4.64c.78-3.59,1.56-7.17,2.34-10.74M44.7,40.74c.12,0,.19.02.27.02,1.07,0,2.15.03,3.22-.02.71-.03,1.43-.11,2.13-.24,1.26-.23,2.39-.76,3.13-1.84.97-1.41,1.54-2.98,1.62-4.69.05-.93-.36-1.49-1.26-1.74-.61-.16-1.24-.28-1.87-.31-1.52-.06-3.04-.04-4.56-.06-.23,0-.32.07-.38.3-.62,2.38-1.26,4.75-1.9,7.13-.13.48-.26.95-.39,1.45M116.66,46.18c0,.14-.01.25,0,.35.11.68.17,1.38.35,2.05.38,1.41,1.21,2.5,2.47,3.27,1.24.76,2.61,1.05,4.03,1.12,1.87.1,3.73-.15,5.57-.44.25-.04.35-.14.4-.38.46-1.88.94-3.75,1.4-5.62.03-.11.04-.22.07-.35h-14.3ZM55,44.98s0,.05.01.07h.27c2.48,0,4.97,0,7.45,0,.25,0,.33-.08.4-.31,1.69-5.85,3.4-11.71,5.09-17.56.07-.25.18-.31.43-.31,2.32,0,4.63,0,6.95,0,.12,0,.25-.01.37-.02V1.17h-30.64v25.71h.37c2.8,0,5.6-.01,8.41,0,1.57.01,3.13.13,4.65.61,2.49.8,3.73,2.78,3.86,5.2.1,1.72-.16,3.39-.64,5.03-.96,3.31-3.11,5.58-6.25,6.95-.24.11-.49.21-.73.31M107.12,45.04c.02-.09.04-.18.05-.26.07-.45.12-.91.21-1.35.72-3.47,2.14-6.63,4.17-9.53.09-.14.15-.32.15-.49.01-10.64.01-21.28.01-31.92v-.32h-30.66v43.88c.19,0,.36-.02.53,0,.24.03.37-.08.5-.28,3.75-5.86,7.5-11.73,11.24-17.59.13-.2.27-.27.5-.27,4.09,0,8.19,0,12.28.01h.33c-1.29,6.06-2.56,12.07-3.84,18.11h4.52ZM40.23,1.18H9.57v25.76h7.35c-1.31,4.32-2.61,8.6-3.91,12.88.03.02.06.04.09.06.09-.11.16-.22.26-.32,3.87-4.13,7.74-8.26,11.61-12.4.13-.13.24-.22.45-.22,3.14,0,6.28,0,9.42,0,.07,0,.14.01.22.02.02.02.03.05.05.07-.08.06-.17.11-.24.18-5.02,5.08-10.04,10.17-15.06,15.24-.17.17-.18.3-.08.51.29.58.57,1.18.84,1.78.11.24.23.33.51.33,4.5-.01,9.01,0,13.51,0,.62,0,.62,0,.81-.61,1.59-5.22,3.17-10.43,4.75-15.65.06-.19.08-.39.08-.58,0-8.89,0-17.78,0-26.67v-.36ZM147.51,45.03V1.17h-30.69v27.5c.09-.05.15-.07.21-.11,1.43-.88,2.95-1.59,4.55-2.11,2.45-.8,4.98-1.18,7.55-1.28,2.27-.09,4.53.01,6.75.51,1.61.36,3.12.94,4.4,2.01,1.17.97,1.92,2.2,2.2,3.71.24,1.32.08,2.61-.18,3.9-.05.25-.13.34-.4.34-2.85,0-5.7,0-8.56,0-.1,0-.19-.01-.29-.02,0-.09,0-.16,0-.23.04-.97-.1-1.88-.74-2.66-.56-.68-1.31-1.06-2.16-1.22-2.68-.52-5.15.03-7.39,1.59-1.91,1.33-3.21,3.16-4.22,5.23-.86,1.76-1.4,3.62-1.71,5.55-.06.37,0,.77,0,1.18h.33c2.28,0,4.55,0,6.83,0,.26,0,.36-.07.42-.32.35-1.47.73-2.94,1.09-4.42.06-.25.15-.34.43-.34,4.92.01,9.84,0,14.76,0h.34c-.42,1.7-.84,3.36-1.26,5.05h7.74ZM148.66,46.16h-.39c-2.82,0-5.65,0-8.47,0-.25,0-.34.08-.4.31-.88,3.53-1.77,7.06-2.65,10.59-.05.21-.15.29-.35.33-2.21.39-4.41.83-6.62,1.17-2.8.43-5.63.6-8.46.57-2.57-.03-5.11-.33-7.53-1.28-1.98-.78-3.66-1.96-4.87-3.73-.88-1.28-1.44-2.7-1.67-4.23-.16-1.07-.18-2.15-.26-3.23-.01-.15,0-.31,0-.48h-4.66c-.16.75-.32,1.49-.48,2.24-.7,3.27-1.39,6.53-2.09,9.8-.03.14-.07.23-.24.23-2.55,0-5.11,0-7.66,0-.04,0-.07-.02-.14-.03.88-4.07,1.77-8.14,2.66-12.25h-.33c-1.52,0-3.04,0-4.56,0-.22,0-.34.08-.45.25-2.5,3.92-5.01,7.83-7.51,11.74-.14.22-.29.3-.55.29-2.03-.01-4.06,0-6.08,0h-.39v-.41c-.02-3.82-.05-7.65-.07-11.47q0-.4-.41-.4c-.98,0-1.97.01-2.95,0-.29,0-.39.09-.47.35-1.09,3.88-2.19,7.77-3.28,11.65-.05.17-.08.3-.32.29-2.56,0-5.13,0-7.69,0-.05,0-.1,0-.2-.01,1.19-4.09,2.37-8.15,3.57-12.27h-.35c-5.81,0-11.61,0-17.41,0-.59,0-1.19.03-1.79.02-.23,0-.32.08-.39.3-1.17,3.89-2.35,7.78-3.51,11.68-.08.26-.18.34-.45.33-2.45-.01-4.91,0-7.36,0h-.34c1.25-4.12,2.49-8.19,3.74-12.3h-13.56c1.98,4.1,3.95,8.17,5.95,12.28-.15,0-.24.02-.34.02-2.75,0-5.51,0-8.26,0-.24,0-.34-.08-.45-.29-1.95-3.92-3.91-7.83-5.86-11.74-.12-.23-.24-.31-.5-.3-.75.02-.75,0-.96.72-1.13,3.76-2.27,7.51-3.4,11.27-.07.25-.17.34-.44.34-2.23-.01-4.45,0-6.68,0h-.34c.04-.16.06-.28.1-.39,2.74-9.05,5.49-18.1,8.22-27.15.06-.2.09-.43.09-.64,0-9.93,0-19.87,0-29.8V.03h32.96v26.88h2.77V0h32.59q.4,0,.4.41v26.45h2.77V.02h32.98v32.12c.12-.12.19-.18.26-.25.78-.74,1.54-1.49,2.33-2.21.16-.15.19-.3.19-.49,0-9.36,0-18.72,0-28.07,0-.28.01-.56,0-.83-.02-.23.08-.31.29-.28.05,0,.1,0,.15,0C126.81,0,137.51,0,148.22,0c.52,0,.44-.03.44.45,0,15.09,0,30.18,0,45.27v.44Z"/>
  </g>
</svg>