<?xml version="1.0" encoding="UTF-8"?>
<svg id="Capa_2" data-name="Capa 2" xmlns="http://www.w3.org/2000/svg" viewBox="0 0 229.37 76.78">
  <defs>
    <style>
      .cls-1 {
        fill: #fff;
        stroke-width: 0px;
      }
    </style>
  </defs>
  <g id="Capa_1-2" data-name="Capa 1">
    <g>
      <path class="cls-1" d="M219.19,30.56c1.22,1.15,2.51,2.24,3.64,3.47.47.52.85,1.35.86,2.04.07,5.86.02,11.71.06,17.57,0,1.08-.35,1.43-1.43,1.43-5.9-.04-11.81,0-17.71-.05-.62,0-1.35-.36-1.85-.78-1.07-.92-2.05-1.95-3.02-2.99-.52-.55-.9-.6-1.44-.02-1.05,1.12-2.13,2.22-3.26,3.25-.37.33-.94.61-1.43.61-6.02.04-12.05,0-18.07.03-1.13,0-1.51-.35-1.5-1.48.04-5.82.03-11.63,0-17.45,0-.94.28-1.65.97-2.29.96-.88,1.83-1.85,2.79-2.71.74-.66.7-1.16-.02-1.82-1.02-.92-2.02-1.88-2.91-2.93-.42-.49-.77-1.23-.78-1.86-.06-5.93-.03-11.87-.04-17.8,0-.94.33-1.34,1.31-1.33,6.06.03,12.12,0,18.18.04.51,0,1.12.33,1.51.69,1.1,1.01,2.14,2.09,3.15,3.18.57.61.99.56,1.56-.01,2.76-2.8,5.56-5.57,8.3-8.38C208.72.34,209.35,0,210.26,0c5.86.03,11.73.01,17.59.02,1.46,0,1.51.06,1.51,1.54,0,5.82.03,11.63-.04,17.45,0,.69-.38,1.54-.86,2.04-2.87,2.97-5.82,5.86-8.73,8.78-.13.14-.23.31-.54.72"/>
      <path class="cls-1" d="M110.3,40.17c1.26-.8,4.75-.47,5.57.42,2.77,3.01,5.54,6.01,8.3,9.03.29.32.5.71.74,1.06.14-.08.29-.15.43-.23v-3.69c0-1.14.01-2.28,0-3.42-.02-1.55-.44-2.11-1.89-2.6-.35-.12-.68-.28-1.08-.44.58-.6,5.62-.73,6.5-.23-.15.17-.26.44-.43.49-1.43.41-1.66,1.45-1.64,2.75.04,3.34.03,6.68,0,10.02,0,.53-.29,1.06-.45,1.59-.52-.28-1.16-.45-1.54-.86-2.97-3.14-5.9-6.32-8.83-9.51-.28-.31-.44-.74-.66-1.11-.17.11-.35.22-.52.32v3c0,1.69.02,3.38,0,5.07-.02,1.12.48,1.76,1.58,2,.4.09.76.35,1.13.53-.03.1-.07.2-.1.3h-6.59c.34-.4.45-.66.63-.72,1.45-.53,1.71-1.67,1.69-3.03-.03-2.55,0-5.11,0-7.66,0-1.84-.15-2.03-1.88-2.62-.3-.1-.57-.28-.95-.47"/>
      <path class="cls-1" d="M41.83,18.71h0c0,.67-.06,1.34.03,2,.03.27.36.71.55.72,1.13.01,2.29.05,3.39-.19,1.04-.22,1.6-1.04,1.62-2.18.04-1.86-.89-2.93-2.95-3.33-2.09-.41-2.64.04-2.65,2.16v.82M47.02,22.24c1.4,1.85,2.71,3.66,4.13,5.38.33.4,1.02.48,1.54.73.22.11.41.29.62.44-.19.22-.36.59-.58.62-1.69.26-3.5.39-4.52-1.33-.88-1.48-2.02-2.81-2.95-4.27-.66-1.02-1.57-1.28-2.64-1.08-.3.06-.73.49-.75.77-.08,1.25-.14,2.53.02,3.76.06.48.67.95,1.12,1.31.33.26.82.33,1.24.48-.02.11-.04.22-.05.33h-7.13c.44-.39.62-.66.85-.73,1.03-.3,1.27-1.03,1.26-1.99-.02-3.03-.03-6.05,0-9.08.01-1.14-.38-1.88-1.55-2.16-.25-.06-.45-.35-.67-.53.28-.16.55-.47.83-.47,2.51-.03,5.03-.06,7.54.02.84.03,1.71.3,2.5.62,1.5.61,2.21,1.81,2.26,3.42.05,1.58-.77,2.57-2.13,3.22-.27.13-.54.28-.93.5"/>
      <path class="cls-1" d="M95.37,18.65c.08,3.08-.63,2.92,2.91,2.8,2.28-.08,3.48-2.22,2.22-4.09-.52-.77-1.63-1.35-2.58-1.6-2.04-.52-2.55-.01-2.55,2.06,0,.28,0,.55,0,.82M100.47,22.21c1.43,1.9,2.73,3.71,4.15,5.44.32.39,1.03.46,1.55.71.23.11.43.27.64.42-.18.22-.33.54-.56.64-1.49.65-3.54.07-4.51-1.27-.92-1.27-1.8-2.58-2.71-3.86-.29-.41-.57-.98-.99-1.14-.69-.26-1.49-.35-2.22-.27-.19.02-.37.91-.41,1.42-.07.82.03,1.65-.03,2.47-.08,1.13.38,1.79,1.51,2,.28.05.54.23.81.35-.02.1-.03.2-.05.3h-6.75c-.13-.15-.25-.29-.38-.44.26-.08.52-.16.79-.23,1.26-.32,1.45-1.26,1.44-2.37-.02-2.71-.03-5.42,0-8.13.02-1.42-.21-2.61-1.9-2.87-.1-.02-.2-.12-.28-.2-.05-.05-.05-.14-.17-.49.53-.08,1.01-.22,1.49-.23,1.61-.03,3.22-.06,4.82,0,1.33.05,2.68.1,3.96.41,1.78.43,2.76,1.7,2.89,3.31.14,1.75-.51,2.76-2.35,3.64-.18.08-.34.18-.71.37"/>
      <path class="cls-1" d="M85.05,22.25c-.02-1.78-.38-3.45-1.45-4.89-2.26-3.04-7.1-2.69-8.77.67-1.19,2.41-1.23,4.93-.12,7.4,1.04,2.31,3.13,3.39,5.78,3.14,2.11-.2,3.68-1.69,4.26-4.12.17-.72.2-1.47.3-2.2M79.59,14.36c6.58.03,10.2,5.51,7.35,11.14-1.62,3.2-5.3,4.82-9.36,4.11-4.93-.86-7.45-4.81-6.15-9.64.97-3.59,3.93-5.63,8.15-5.61"/>
      <path class="cls-1" d="M20.35,22.06c.28,1.06.44,2.33.95,3.44.98,2.11,2.72,3.15,5.1,3.11,2.11-.04,3.65-.99,4.45-2.89,1.09-2.59,1.01-5.23-.34-7.72-1.03-1.89-2.73-2.81-4.87-2.7-2.26.12-3.84,1.32-4.59,3.46-.34.99-.44,2.05-.7,3.31M26.13,14.35c4.39.03,7.47,2.26,8.12,5.89,1.04,5.82-3.74,10.33-9.89,9.41-6.89-1.02-8.1-7.75-5.36-11.94,1.67-2.55,4.22-3.36,7.13-3.37"/>
      <path class="cls-1" d="M146.09,39.86c.47-.06.94-.18,1.42-.18,3.1-.01,6.21.03,9.32-.01,1-.01,1.49.29,1.41,1.34-.07.83-.11,1.67-.16,2.5-.13.03-.27.06-.4.09-.16-.26-.4-.49-.47-.77-.22-.93-.85-1.48-1.71-1.57-1.24-.13-2.51-.15-3.76-.07-.32.02-.74.52-.89.89-.16.41-.07.93-.07,1.4,0,2.9.5,3.33,3.42,2.68.51-.11.95-.61,1.38-.98.24-.21.39-.53.6-.83.64.86.65,4.58,0,5.6-.23-.37-.48-.65-.6-.97-.33-.91-.98-1.26-1.91-1.26-3.5.02-2.85-.33-2.89,2.72-.04,2.92.52,3.39,3.48,3.09,1.53-.16,2.9-.68,4-1.8.14-.14.29-.27.45-.38.05-.04.15-.02.22-.03.63,1.44-.83,3.46-2.65,3.51-2.56.07-5.12.01-7.67.02-.51,0-1.03.04-1.53.01-.31-.02-.61-.14-1-.24.16-.26.21-.43.29-.44,1.79-.33,1.79-1.63,1.77-3.04-.05-2.75-.06-5.5.02-8.25.03-1.1-.26-1.82-1.35-2.15-.27-.08-.51-.29-.76-.44.02-.14.03-.28.05-.42"/>
      <path class="cls-1" d="M63.45,51.31c.49,1.62-.98,3.48-2.88,3.52-3.03.06-6.06.03-9.09.02-.28,0-.56-.13-.88-.21.11-.24.13-.42.2-.43,1.83-.44,1.85-1.8,1.81-3.3-.07-2.51-.07-5.03,0-7.54.04-1.36-.18-2.43-1.7-2.78-.19-.04-.35-.17-.53-.25.04-.13.08-.26.13-.39.41-.09.82-.25,1.23-.25,3.18-.02,6.36.02,9.55-.01.96,0,1.39.34,1.31,1.31-.07.84-.09,1.69-.13,2.54-.13.01-.26.02-.39.03-.15-.2-.39-.39-.43-.61-.25-1.37-1.26-1.71-2.43-1.79-.94-.06-1.89-.03-2.83-.02-.76,0-1.16.37-1.14,1.17.02,1.02-.05,2.05.04,3.06.03.31.45.84.67.83,1.56-.05,3.42.68,4.3-1.44.06-.14.36-.3.46-.26.18.08.39.31.4.49.03,1.41.03,2.83-.02,4.24,0,.2-.29.39-.45.59-.17-.14-.39-.26-.49-.44-.88-1.49-2.65-2.17-4.34-1.58-.24.08-.51.49-.52.76-.06,1.22-.04,2.43-.02,3.65.02,1.06.81,1.28,1.62,1.33,2.18.14,4.25-.14,5.84-1.88.13-.14.31-.24.47-.34.05-.03.15,0,.22.01"/>
      <path class="cls-1" d="M107.95,51.18c.38,1.69-.84,3.54-2.47,3.6-3.26.12-6.53.05-9.79.04-.19,0-.38-.19-.59-.3.1-.17.15-.34.22-.35,1.78-.33,1.81-1.62,1.78-3.04-.06-2.67-.06-5.34,0-8.01.03-1.24-.19-2.18-1.57-2.48-.14-.03-.27-.16-.38-.26-.05-.04-.06-.14-.16-.42.43-.1.84-.27,1.25-.28,3.22-.02,6.44.02,9.66-.01.99,0,1.36.37,1.25,1.33-.1.83-.14,1.66-.21,2.49l-.35.08c-.15-.26-.38-.51-.45-.79-.24-1-.96-1.46-1.86-1.56-1.17-.12-2.36-.15-3.53-.05-.36.03-.92.57-.96.93-.13,1.12-.08,2.27-.04,3.41,0,.22.25.64.37.63,1.28-.05,2.58-.05,3.81-.34.49-.12.82-.93,1.45-1.71.11.73.22,1.11.23,1.5.02,1.14.03,2.28-.01,3.42-.01.26-.26.5-.39.75-.19-.17-.45-.3-.56-.51-.7-1.33-3.18-2.17-4.51-1.46-.21.11-.38.49-.39.76-.04,1.18-.03,2.36,0,3.53.02,1.03.76,1.33,1.59,1.4,2.23.19,4.32-.13,5.95-1.88.15-.16.37-.25.67-.44"/>
      <path class="cls-1" d="M157.93,18.3c-.13-.27-.2-.58-.39-.8-.44-.5-.89-1.27-1.43-1.37-1.33-.24-2.73-.21-4.09-.16-.27,0-.72.54-.75.86-.09,1.13-.08,2.28,0,3.41.02.26.45.71.68.7,1.56-.06,3.42.67,4.29-1.46.05-.13.38-.29.46-.24.17.09.38.33.38.5.03,1.41.02,2.83,0,4.24,0,.19-.23.37-.35.55-.2-.15-.48-.25-.59-.45-.8-1.39-3.11-2.23-4.48-1.53-.23.12-.39.56-.4.86-.05,1.06.02,2.12-.03,3.18-.06,1.13.56,1.59,1.55,1.65,2.17.14,4.26-.07,5.88-1.8.19-.21.48-.33.75-.51.41,1.42-.74,3.46-2.18,3.52-3.41.15-6.84.06-10.26.06-.12,0-.23-.17-.36-.26.08-.15.11-.32.18-.34,1.78-.4,1.84-1.7,1.8-3.18-.07-2.63-.06-5.27,0-7.9.03-1.24-.18-2.18-1.56-2.49-.19-.04-.34-.27-.73-.59.58-.16.95-.35,1.32-.35,3.26-.02,6.52.01,9.78-.01.86,0,1.24.31,1.17,1.18-.07.89-.09,1.79-.13,2.68-.16,0-.32,0-.49,0"/>
      <path class="cls-1" d="M0,39.89c.46-.08.86-.2,1.26-.2,3.18-.01,6.36.01,9.54-.01.89,0,1.32.27,1.26,1.22-.05.86-.01,1.73-.01,2.6-.17.03-.34.06-.5.09-.17-.3-.28-.64-.51-.89-.45-.49-.9-1.22-1.45-1.32-1.3-.24-2.65-.23-3.98-.16-.31.02-.8.64-.84,1.02-.12,1.05-.09,2.12-.02,3.17.02.29.39.79.6.78,1.65-.02,3.57.66,4.48-1.55.04-.11.25-.14.57-.31.08.5.19.89.2,1.28.02,1.14.03,2.28-.01,3.42-.01.26-.26.5-.4.76-.21-.2-.49-.36-.61-.6-.65-1.25-3.18-2.07-4.46-1.35-.23.13-.37.57-.39.88-.05,1.02-.03,2.04-.01,3.06.02,1.26.41,1.68,1.7,1.76,2.19.13,4.25-.17,5.83-1.92.1-.11.24-.2.38-.27.06-.03.15-.02.23-.03.66,1.38-.81,3.41-2.63,3.52-1.25.07-2.52,0-3.77,0-1.69,0-3.38.04-5.07.03-.42,0-.85-.12-1.37-.19.16-.28.21-.45.28-.47,1.8-.4,1.82-1.72,1.79-3.18-.06-2.63-.06-5.26,0-7.89.03-1.24-.23-2.17-1.58-2.48-.14-.03-.26-.16-.37-.27-.05-.05-.04-.14-.12-.47"/>
      <path class="cls-1" d="M23.11,40.14q-1.35,1.13-.42,2.59c.59.91,1.2,1.81,1.99,3,1.07-1.5,2.01-2.77,2.89-4.1.1-.15-.14-.63-.35-.83-.25-.24-.63-.34-.96-.51,0-.11.02-.23.03-.34.33-.09.66-.24,1-.25,1.06-.03,2.11-.03,3.17.02.3.01.59.24.89.38-.18.23-.34.48-.54.69-1.68,1.74-3.39,3.46-5.03,5.24-.19.21-.17.87.02,1.14,1.21,1.84,2.46,3.65,3.78,5.41.38.5,1.04.81,1.57,1.19.28.21.58.4.87.6-.04.1-.07.21-.11.31h-6.04c0-.15-.05-.28-.01-.3,1.09-.73.9-1.49.18-2.41-.79-1.01-1.46-2.12-2.37-3.48-1.13,1.56-2.16,2.92-3.08,4.34-.12.19.22.78.48,1.09.18.22.56.28.85.41-.02.11-.05.22-.07.33h-5.93c.4-.38.56-.61.77-.71,2.73-1.24,4.05-3.87,5.88-6,.18-.2.07-.85-.13-1.14-1.1-1.63-2.2-3.27-3.44-4.79-.49-.6-1.33-.9-2-1.36-.2-.14-.36-.35-.53-.53.16-.15.32-.42.49-.42,1.92-.01,3.84.02,5.75.05.11,0,.22.19.41.35"/>
      <path class="cls-1" d="M55.25,14.89c.42-.09.83-.24,1.26-.26,2.08-.08,4.16-.21,6.24-.16,1.16.03,2.36.21,3.44.6,1.63.6,2.48,1.97,2.46,3.68-.03,1.72-.85,3.09-2.51,3.81-1.33.58-2.72.79-4.15.4-.36-.1-.67-.37-1-.57.03-.12.05-.24.08-.37.51-.03,1.02-.08,1.54-.08,1.19-.01,2.34-.18,2.88-1.41.56-1.27.51-2.58-.45-3.65-.93-1.04-2.22-1.39-3.55-1.08-.41.1-.94.82-.95,1.26-.08,3.38-.09,6.76,0,10.13.01.48.68,1.01,1.15,1.4.32.27.81.33,1.23.48-.02.11-.04.22-.05.34h-6.99c.26-.31.38-.59.53-.61,1.34-.25,1.44-1.19,1.42-2.3-.04-2.67-.01-5.34-.01-8.01q0-2.12-1.99-2.87c-.21-.08-.38-.25-.56-.37,0-.12,0-.24-.01-.36"/>
      <path class="cls-1" d="M116.76,18.21c-.85,1.63-1.57,3.01-2.38,4.55h4.61c-.76-1.54-1.44-2.92-2.24-4.55M117.73,14.22c.35.61.63,1.02.83,1.47,1.6,3.54,3.21,7.08,4.76,10.65.49,1.14,1.09,2.08,2.38,2.38.15.03.28.14.4.23.05.04.07.13.1.2-.58.53-5.77.66-6.99.08.27-.23.45-.47.7-.57,1.07-.43,1.11-1.19.76-2.12-.81-2.16-.89-2.22-3.24-2.22-.75,0-1.49,0-2.24,0-1.68,0-3.18,1.36-3.11,3,.02.43.59.92,1.02,1.22.37.26.9.31,1.45.47-.67.61-4.8.78-6.19.37,0-.07-.05-.2-.02-.22,2.49-1.65,3.12-4.53,4.54-6.87,1.41-2.32,2.68-4.71,4.03-7.06.18-.32.46-.58.81-1.03"/>
      <path class="cls-1" d="M138.82,29.43h-7.62c-.03-.12-.05-.24-.08-.35.39-.17.77-.4,1.18-.51.9-.24,1.31-.79,1.31-1.71,0-3.11,0-6.21,0-9.32,0-1.04-.46-1.53-1.51-1.46-.43.03-.87,0-1.3,0-1.79,0-2.07.22-2.71,1.85-.14.35-.49.61-.74.9-.11-.38-.34-.77-.3-1.14.31-3.12.33-3.08,3.42-3.06,3.58.02,7.17-.03,10.75-.09.74-.01,1.11.23,1.19.95.08.7.2,1.4.24,2.11.01.23-.18.47-.28.71-.22-.12-.59-.18-.64-.35-.81-2.51-2.88-1.83-4.65-1.81-.27,0-.76.59-.77.91-.05,3.34-.03,6.68-.03,10.02,0,.88.64,1.18,1.34,1.42.44.15.85.35,1.28.52-.03.13-.06.27-.1.4"/>
      <path class="cls-1" d="M143.73,40.84c.08,1.19.19,2.63.26,4.07,0,.19-.2.39-.31.59-.22-.12-.49-.2-.64-.38-.17-.2-.22-.5-.33-.75-1.18-2.77-3.37-4.2-5.84-3.8-2.81.46-4.56,2.49-4.76,5.6-.05.81.03,1.65.16,2.46.36,2.26,1.45,4.04,3.73,4.72,2.34.7,4.51.23,6.37-1.43.32-.28.7-.5,1.05-.74.09.07.19.15.28.22-.1.3-.13.66-.32.87-2.01,2.2-4.58,3-7.47,2.72-2.74-.26-4.88-1.59-5.89-4.24-1.14-2.99-.74-5.84,1.38-8.28,2.1-2.4,4.81-3.32,7.98-2.68,1.35.27,2.69.64,4.34,1.04"/>
      <path class="cls-1" d="M14.31,26.2c-.08.24-.1.53-.25.71-2.14,2.41-4.87,3.2-7.99,2.76-3.04-.43-5.06-2.16-5.75-5.15-.7-3.03-.06-5.8,2.32-7.96,2.31-2.09,5-2.66,8.01-1.86,1.1.29,2.21.55,3.65.9.08,1.15.19,2.69.25,4.22,0,.05-.71.26-.79.15-.26-.32-.39-.76-.56-1.15-1.2-2.69-3.4-3.9-6.15-3.4-2.42.44-4.1,2.47-4.25,5.24-.06,1.05-.08,2.15.15,3.16,1.01,4.63,6.06,6.11,9.92,2.96.37-.3.77-.57,1.15-.85l.28.27"/>
      <path class="cls-1" d="M47.45,51.41c-.12.33-.16.73-.38.96-2.05,2.15-4.63,2.91-7.52,2.6-2.72-.28-4.78-1.65-5.76-4.25-1.16-3.09-.7-6.02,1.56-8.46,2.2-2.37,5-3.16,8.18-2.39,1.23.3,2.46.6,3.92.95.08,1.16.19,2.6.25,4.04,0,.2-.25.42-.39.62-.2-.16-.46-.29-.58-.5-.2-.33-.28-.73-.45-1.09-1.04-2.21-3.28-3.62-5.34-3.39-2.56.29-4.28,1.8-4.85,4.44-.5,2.3-.35,4.57,1.09,6.54,2,2.74,6.11,2.91,8.92.46.33-.28.7-.51,1.05-.76.09.07.19.14.28.21"/>
      <path class="cls-1" d="M87.76,40.28c-2.57.77-2.02,2.76-2.03,4.51-.01,2.47.03,4.95-.02,7.43-.02,1.03.41,1.38,1.4,1.4,2.31.07,4.5-.14,6.09-2.12.09-.11.26-.14.39-.21.8,1.2.18,2.89-1.35,3.34-1.03.31-2.16.36-3.25.37-2.2,0-4.4-.09-6.6-.15-.33-.01-.66-.08-1.03-.12.06-.25.05-.42.11-.45,1.59-.64,1.65-1.94,1.61-3.4-.07-2.71-.05-5.42,0-8.13.02-1.07-.35-1.7-1.43-1.96-.32-.08-.56-.43-.84-.65.32-.15.64-.42.97-.43,1.65-.04,3.29-.02,4.94,0,.28,0,.55.15.83.24.07.11.14.23.21.34"/>
      <path class="cls-1" d="M78.82,51.31c.66,1.35.1,2.89-1.37,3.31-1.11.32-2.32.37-3.48.38-2.08.02-4.16-.09-6.24-.15-.37-.01-.73-.08-1.21-.14.14-.3.18-.51.27-.54,1.52-.51,1.43-1.75,1.42-2.99-.03-2.83-.03-5.66,0-8.49.01-1.02-.34-1.63-1.36-1.89-.32-.08-.58-.42-.86-.65.36-.16.71-.43,1.07-.44,1.57-.05,3.14-.03,4.7,0,.32,0,.63.12.98.2-.09.27-.1.45-.17.47-1.69.66-1.77,2.03-1.73,3.57.08,2.75.05,5.5,0,8.25-.02,1.01.37,1.39,1.37,1.43,2.36.08,4.58-.15,6.18-2.17.08-.1.27-.1.4-.15"/>
      <path class="cls-1" d="M20.52,73.48c0-.93-.02-1.86,0-2.79.01-.58-.07-1.27.83-1.25.82.02.76.66.76,1.2.01,1.61.04,3.22-.02,4.82-.02.4-.35,1.13-.5,1.12-.52-.03-1.2-.18-1.49-.54-.87-1.09-1.59-2.31-2.36-3.48-.11.02-.22.04-.33.06,0,.95.07,1.9-.03,2.83-.04.39-.4.98-.72,1.05-.79.18-.83-.52-.84-1.07-.01-1.72-.02-3.45.04-5.17,0-.27.37-.78.51-.76.53.07,1.23.16,1.52.52.87,1.1,1.57,2.33,2.34,3.5.1-.02.19-.03.29-.05"/>
      <path class="cls-1" d="M145.71,73.51c0-1.01-.07-2.03.04-3.03.04-.37.5-.69.77-1.03.23.33.65.66.67,1,.07,1.68.06,3.37,0,5.06-.01.39-.35,1.1-.51,1.09-.48-.03-1.11-.2-1.39-.55-.8-1.01-1.46-2.13-2.18-3.21-.12-.18-.27-.34-.61-.76,0,1.39.05,2.48-.03,3.55-.02.32-.41.61-.63.91-.27-.3-.77-.58-.78-.89-.08-1.64-.08-3.29-.02-4.94.02-.42.36-1.17.58-1.18.51-.02,1.21.17,1.5.54.86,1.11,1.55,2.34,2.31,3.52.1-.03.2-.05.3-.08"/>
      <path class="cls-1" d="M136.98,73.06c.02-1.32-.89-2.35-2.09-2.37-1.12-.01-2.09,1-2.12,2.23-.03,1.35.82,2.35,2.04,2.38,1.31.03,2.14-.83,2.17-2.24M134.87,69.35c2.29,0,3.84,1.51,3.82,3.72-.03,2.12-1.64,3.69-3.8,3.68-2.19-.01-3.84-1.64-3.83-3.79,0-2.15,1.55-3.61,3.81-3.62"/>
      <path class="cls-1" d="M62.04,73.05c0-1.28-.95-2.34-2.14-2.35-1.18-.01-2.08,1.01-2.07,2.37,0,1.38.76,2.2,2.03,2.23,1.25.03,2.17-.92,2.18-2.24M59.99,69.35c2.23.02,3.75,1.5,3.76,3.68.01,2.12-1.72,3.78-3.89,3.73-2.25-.05-3.76-1.62-3.73-3.85.03-2.14,1.59-3.57,3.86-3.56"/>
      <path class="cls-1" d="M176.66,72.98c0,.39.02.79,0,1.17-.06.91.39,1.17,1.23,1.05,1.76-.27,2.65-2.17,1.48-3.51-.44-.51-1.42-.61-2.17-.73-.1-.02-.38.92-.53,1.43-.06.18,0,.39,0,.58M174.99,72.99c0-.87-.08-1.74.04-2.59.05-.36.51-.89.84-.94.84-.11,1.73-.08,2.58.05,2.08.31,3.18,1.8,3.02,3.93-.15,1.88-1.44,3.09-3.48,3.11-3.56.03-2.93.39-3-2.85,0-.24,0-.47,0-.71h0Z"/>
      <path class="cls-1" d="M194.18,71.83c0-.15,0-.3,0-.46-.37-.17-.75-.49-1.1-.46-.27.02-.71.49-.7.75,0,.26.47.71.73.71.36,0,.72-.35,1.08-.54M195.81,76.38c-2.29.73-1.98-1.82-3.39-2.37-.05.62-.01,1.2-.17,1.72-.1.32-.49.75-.76.76-.27,0-.77-.45-.78-.72-.07-1.84-.07-3.69,0-5.53.01-.28.48-.74.78-.78.81-.09,1.66-.09,2.47.04,1.62.26,2.42,2.29,1.26,3.43-.84.82-.58,1.34-.1,2.08.27.41.45.88.7,1.38"/>
      <path class="cls-1" d="M34.19,70.39c-.44.63-.82.94-.82,1.25,0,.27.49.77.69.74.37-.06.85-.38.96-.7.08-.22-.39-.63-.83-1.29M35.5,73.72c.26.49.5.93.74,1.38.22.4.44.8.7,1.27-2.35.78-2.07-1.79-3.49-2.42-.05.62-.03,1.18-.17,1.7-.09.33-.44.59-.67.89-.27-.29-.77-.58-.78-.88-.08-1.76-.03-3.53-.05-5.3,0-.64.28-.95.92-.94.67,0,1.34-.02,2,.03.92.07,1.68.46,1.97,1.41.29.96.04,1.78-.69,2.46-.14.13-.29.24-.48.4"/>
      <path class="cls-1" d="M204.99,73c0-.87-.07-1.74.03-2.59.04-.35.46-.65.71-.97.26.31.59.59.75.94.12.26.04.62.03.93-.03.67.31.92.94.89.28-.01.55,0,.83,0q1.58,0,1.64-1.61c.02-.56-.02-1.26.79-1.1.3.06.69.67.71,1.04.08,1.65.08,3.3,0,4.95-.02.36-.44.93-.76,1-.75.15-.67-.53-.73-1.03-.07-.56-.1-1.53-.33-1.59-.85-.2-1.78-.14-2.67-.08-.15.01-.33.47-.38.75-.07.42.06.89-.07,1.28-.09.29-.47.67-.71.66-.25,0-.63-.38-.71-.66-.12-.44-.04-.93-.05-1.41,0-.47,0-.94,0-1.41"/>
      <path class="cls-1" d="M68.47,70.45c-.42.55-.82.84-.83,1.15-.01.26.52.82.63.78.4-.15.79-.46,1.03-.81.07-.1-.4-.56-.82-1.12M69.76,73.73c.47.87.92,1.72,1.42,2.65-2.32.75-2.06-1.78-3.46-2.44-.06.63-.02,1.2-.18,1.7-.11.35-.51.6-.78.89-.23-.29-.65-.58-.66-.88-.07-1.76-.03-3.53-.04-5.29,0-.64.27-.95.9-.95.67,0,1.34-.03,2,.03.91.08,1.68.44,1.95,1.42.28,1,.09,1.86-.76,2.52-.12.09-.23.2-.39.34"/>
      <path class="cls-1" d="M79.61,72.86c.51-.6.78-.92,1.05-1.23-.32-.26-.62-.66-.97-.71-.21-.04-.68.43-.73.73-.05.27.3.61.65,1.22M81.05,73.66c.48.95.92,1.81,1.38,2.73-2.31.68-2.03-1.79-3.4-2.44-.06.6-.02,1.13-.18,1.61-.12.36-.46.65-.71.98-.26-.3-.73-.6-.75-.91-.08-1.8-.08-3.61-.01-5.41,0-.27.43-.68.74-.76.47-.13,1.01-.05,1.52-.04,1.06.03,2.12.14,2.5,1.33.37,1.15.11,2.18-1.1,2.92"/>
      <path class="cls-1" d="M98.63,72.4c0-.71-.08-1.42.03-2.11.05-.31.46-.57.71-.84.26.27.71.53.73.82.09,1.13.06,2.27.05,3.41-.01,1.01.47,1.55,1.48,1.58,1,.02,1.42-.59,1.46-1.48.05-1.1.03-2.2.03-3.3,0-.56.09-1.14.79-.98.3.07.68.6.7.94.08,1.25.07,2.51.01,3.76-.07,1.66-1.2,2.58-3.03,2.57-1.89-.01-2.89-.88-2.96-2.59-.02-.59,0-1.18,0-1.77"/>
      <path class="cls-1" d="M200.61,69.36c.21.04.78.07,1.26.3.28.13.4.59.6.9-.32.19-.63.48-.97.54-.64.11-1.31.09-1.97.12.48.45.94.91,1.44,1.34.32.28.74.47,1.03.77.98,1.01.59,2.69-.72,3.2-1.14.44-2.26.26-3.28-.33-.22-.13-.43-.74-.31-.91.18-.25.63-.43.97-.43.41,0,.82.31,1.23.32.3.01.61-.23.92-.36-.16-.27-.27-.61-.5-.81-.32-.28-.73-.45-1.11-.66-1.31-.76-1.74-1.5-1.46-2.51.27-.96,1.18-1.49,2.87-1.49"/>
      <path class="cls-1" d="M92.87,71.92c.53.44.94.96,1.1.9.43-.19.75-.63,1.11-.97-.35-.33-.66-.8-1.07-.92-.21-.06-.61.51-1.13.99M91.62,72.92c0-.83-.06-1.66.03-2.47.04-.35.37-.94.59-.95,1.05-.05,2.14-.07,3.14.17,1.09.26,1.32,1.24,1.25,2.26-.08,1.09-.61,1.95-1.69,2.15-1.1.2-1.86.47-1.76,1.8.02.2-.5.61-.76.61-.26,0-.72-.39-.75-.64-.09-.97-.04-1.96-.04-2.94h-.02Z"/>
      <path class="cls-1" d="M183.75,72.95c0-.2-.01-.39,0-.59.08-.92-.09-2.49.29-2.64,1.07-.41,2.36-.27,3.56-.26.21,0,.58.45.57.68,0,.23-.36.58-.62.64-.45.11-.96-.04-1.4.09-.31.09-.54.46-.8.7.25.22.48.47.76.64.15.09.42-.05.57.04.36.2.67.46,1.01.7-.33.24-.65.5-1.01.7-.15.09-.45-.05-.57.05-.27.21-.64.51-.64.77,0,.26.38.66.66.73.48.13,1.03-.01,1.52.1.25.06.52.4.6.66.03.12-.36.52-.58.53-1.06.06-2.13.09-3.18,0-.27-.02-.66-.53-.69-.85-.09-.89-.03-1.8-.03-2.71h-.01Z"/>
      <path class="cls-1" d="M219.98,71.94c.53.43.96.94,1.11.87.42-.2.74-.63,1.09-.98-.35-.32-.67-.8-1.08-.91-.21-.06-.6.52-1.13,1.01M218.73,72.97c0-.55-.04-1.1.01-1.64.07-.77-.41-1.82,1.03-1.92,2.4-.16,3.6.32,3.93,1.68.32,1.33-.33,2.72-1.61,2.98-1.15.23-1.9.57-1.81,1.91.01.17-.55.56-.82.53-.26-.03-.66-.44-.68-.71-.08-.93-.03-1.88-.03-2.82h-.02Z"/>
      <path class="cls-1" d="M40.86,72.16c.39.03.81-.03,1.15.1.4.16.73.47,1.09.72-.34.23-.67.48-1.03.68-.12.07-.36-.04-.46.03-.32.26-.59.57-.88.85.29.24.55.59.88.68.44.12.95-.03,1.4.08.26.06.53.38.63.64.04.11-.34.55-.55.56-1.1.06-2.2.08-3.29,0-.23-.02-.61-.51-.62-.79-.06-1.8-.07-3.61,0-5.41.01-.3.51-.8.82-.84.93-.11,1.89-.09,2.82,0,.28.02.53.41.8.63-.28.25-.52.59-.84.72-.3.12-.7.06-1.05.03-1.01-.09-1.11.45-.88,1.32"/>
      <path class="cls-1" d="M160.57,72.95c0-.31-.03-.63,0-.94.1-.83.05-2.28.36-2.36,1.13-.31,2.39-.18,3.6-.15.17,0,.46.45.45.68,0,.22-.31.56-.53.6-.53.1-1.11,0-1.64.1-.26.05-.47.39-.7.59.23.25.42.59.71.71.3.13.73-.03,1.04.09.26.1.57.43.58.67,0,.23-.31.58-.57.67-.35.13-.82-.04-1.15.11-.27.12-.54.52-.57.81-.02.22.33.62.58.67.53.11,1.1,0,1.64.09.27.05.49.37.73.57-.25.23-.49.63-.75.65-.98.08-1.97.1-2.94,0-.31-.03-.76-.53-.79-.86-.11-.89-.04-1.8-.04-2.7h-.01Z"/>
      <path class="cls-1" d="M87.07,76.56c-2.54-.01-2.33.28-2.34-2.33,0-1.25.02-2.51,0-3.76-.02-.75.31-1.08,1.05-1.06.86.02,1.73-.05,2.59.05.3.04.55.47.83.73-.27.22-.51.54-.82.63-.4.11-.88-.04-1.28.07-.3.08-.54.41-.8.62.28.24.52.56.84.71.26.12.66-.05.92.08.25.12.56.45.55.68,0,.23-.33.54-.59.66-.26.12-.66-.05-.92.08-.32.16-.55.49-.82.74.29.27.54.65.88.79.34.14.8-.04,1.16.06.34.1.63.39.95.6-.3.22-.56.55-.9.64-.4.11-.86.03-1.29.03"/>
      <path class="cls-1" d="M115.32,73.56c.43-.07.88-.12.88-.16-.01-.5-.08-1-.14-1.5-.1,0-.2,0-.3,0-.13.49-.27.99-.45,1.66M118.83,76.42c-.8.3-1.29.13-1.67-.72-.16-.37-.79-.76-1.2-.75-.47,0-1.15.33-1.35.72-.4.79-.84,1.06-1.86.71.2-.64.39-1.3.62-1.93.51-1.44,1.02-2.88,1.6-4.3.12-.3.52-.64.81-.67.3-.03.81.24.92.51.78,2.01,1.48,4.04,2.19,6.08.03.09-.03.22-.06.36"/>
      <path class="cls-1" d="M8.88,72.9c0-.86-.08-1.74.04-2.58.04-.33.49-.82.8-.86.93-.11,1.89-.09,2.82,0,.28.02.53.42.79.65-.29.24-.54.6-.86.7-.39.13-.88-.04-1.28.08-.29.09-.5.43-.75.67.22.22.4.53.66.65.56.24,1.64-.34,1.61.8-.03,1.04-1.04.47-1.57.71-.29.13-.65.48-.65.73,0,.27.35.7.62.77.52.13,1.1,0,1.64.1.26.05.46.4.68.61-.23.21-.45.58-.69.6-1.02.07-2.05.1-3.06-.01-.29-.03-.71-.56-.75-.9-.11-.89-.04-1.8-.04-2.7h0Z"/>
      <path class="cls-1" d="M170.42,73.5c-.19-.57-.35-1.03-.5-1.48-.09.01-.17.03-.26.04-.13.45-.26.91-.41,1.44h1.17ZM172.98,76.32c-1.05.42-1.62.23-1.84-.66-.19-.76-.78-.88-1.37-.73-.45.11-1.05.38-1.22.75-.37.82-.83,1.07-1.85.67.25-.76.48-1.52.74-2.26.47-1.33.94-2.66,1.48-3.96.12-.29.52-.59.84-.64.26-.05.75.2.84.43.82,2.1,1.58,4.23,2.38,6.42"/>
      <path class="cls-1" d="M4.3,69.27c.59.12,1.14.14,1.57.37.28.15.39.61.57.94-.34.14-.71.44-1.01.39-2.07-.38-3.3.52-3.09,2.32.17,1.38,1.26,2.13,2.85,1.94.49-.06,1.05-.36,1.21.44.17.83-.49.87-1,.99-2.04.49-3.91-.42-4.55-2.19-.68-1.89.04-4,1.71-4.75.56-.25,1.2-.31,1.75-.44"/>
      <path class="cls-1" d="M50,73.02c0-.9-.07-1.81.04-2.7.04-.33.49-.82.8-.86.97-.11,1.96-.09,2.94,0,.27.02.5.45.74.69-.26.23-.48.58-.78.66-.44.12-.96-.05-1.4.09-.32.1-.55.48-.82.73.26.26.48.61.79.75.3.13.71-.04,1.04.05.24.07.62.36.6.5-.04.28-.31.53-.51.76-.06.06-.23.05-.34.03-1.32-.2-1.76.39-1.61,1.65.06.52.13,1.17-.73,1.18-.85,0-.76-.62-.77-1.16-.02-.79,0-1.57,0-2.35h0Z"/>
      <path class="cls-1" d="M121.59,73.71c0-.43-.03-.87,0-1.3.09-.99-.05-1.71-1.34-1.62-.23.02-.5-.44-.74-.67.26-.23.5-.65.77-.67,1.37-.07,2.75-.07,4.13,0,.27.01.52.43.77.66-.24.24-.51.7-.73.68-1.27-.09-1.41.61-1.35,1.61.06,1.06.07,2.13-.02,3.18-.03.34-.47.64-.71.95-.25-.31-.66-.59-.73-.94-.12-.6-.03-1.25-.03-1.88h0Z"/>
      <path class="cls-1" d="M108.6,73.55c0-.43-.03-.87,0-1.29.08-.93-.14-1.51-1.26-1.47-.26.01-.54-.47-.81-.72.31-.22.61-.61.93-.63,1.25-.07,2.52-.08,3.77,0,.34.02.64.46.96.71-.3.23-.61.65-.91.64-.96,0-1.22.41-1.18,1.29.05,1.17.06,2.36-.03,3.53-.03.32-.49.61-.75.91-.24-.29-.64-.55-.69-.87-.1-.69-.03-1.41-.03-2.11h-.01Z"/>
      <path class="cls-1" d="M26.88,69.43c.71,0,1.42-.07,2.11.04.26.04.46.49.69.75-.24.2-.49.59-.72.58-1.27-.1-1.4.61-1.35,1.61.06,1.06.07,2.12-.03,3.17-.03.34-.47.64-.72.95-.26-.31-.7-.61-.73-.93-.09-1.17-.06-2.35-.03-3.53.02-.79-.14-1.26-1.08-1.27-.34,0-.67-.43-1.01-.66.36-.25.7-.62,1.09-.71.56-.12,1.17-.03,1.76-.03v.03Z"/>
      <path class="cls-1" d="M155.68,72.45c0,.28,0,.55,0,.83,0,1.86,0,1.83,1.85,2.02.33.03.63.4.94.61-.3.22-.6.63-.91.63-4.14,0-3.32.53-3.4-3.02-.02-1.06-.06-2.13.04-3.18.03-.32.5-.6.77-.9.23.29.63.57.68.89.1.69.03,1.41.03,2.12"/>
      <path class="cls-1" d="M215.9,73.02c0,.86.07,1.74-.04,2.59-.04.34-.48.63-.74.94-.28-.29-.8-.57-.81-.87-.07-1.8-.07-3.61.01-5.41.01-.29.56-.55.86-.83.24.29.65.57.68.88.09.89.03,1.8.03,2.7"/>
      <path class="cls-1" d="M128.77,72.97c0,.9.06,1.8-.03,2.69-.03.31-.43.58-.67.87-.27-.3-.76-.58-.77-.89-.07-1.8-.07-3.6,0-5.39.01-.28.47-.54.73-.81.25.28.68.53.71.83.1.89.03,1.79.03,2.69"/>
    </g>
  </g>
</svg>