<?xml version="1.0" encoding="UTF-8"?>
<svg id="Capa_2" data-name="Capa 2" xmlns="http://www.w3.org/2000/svg" viewBox="0 0 114.09 45.97">
  <defs>
    <style>
      .cls-1 {
        fill: #fff;
        stroke-width: 0px;
      }
    </style>
  </defs>
  <g id="Capa_1-2" data-name="Capa 1">
    <g>
      <path class="cls-1" d="M18.87,17.82h0c.27,0,.55.02.82,0,1.44-.08,2.92-.02,4.32-.3,1.65-.33,2.48-1.67,2.44-3.43-.03-1.58-.78-2.46-2.49-2.91-.34-.09-.7-.18-1.05-.19-2.66-.03-5.31-.05-7.97-.07-.62,0-.77.4-.77.93,0,1.67.01,3.34,0,5.02,0,.71.32.97,1,.95,1.23-.03,2.46,0,3.7,0M19.49,26.41c-1.4,0-2.8.02-4.2,0-.75-.02-1.08.2-1.05,1.03.05,2.19.04,4.39,0,6.58-.01.72.21.98.93.97,2.36-.03,4.72,0,7.08-.02.76,0,1.53-.08,2.29-.2,2.18-.35,3.42-1.78,3.45-3.93.04-2.44-1.02-3.81-3.32-4.27-.53-.1-1.09-.14-1.63-.15-1.18-.02-2.36,0-3.54,0M82.01,16.77c-.29,1.05-.58,2.09-.86,3.14-2.17,8.06-4.34,16.12-6.51,24.18-.5,1.86-.48,1.87-2.42,1.87-2.44,0-4.89,0-7.33,0-1.3,0-1.31,0-1.64-1.22-2.2-8.11-4.39-16.22-6.59-24.32-.32-1.18-.65-2.37-.98-3.55-.07,0-.15,0-.22,0v.84c0,8.95,0,17.9,0,26.85,0,1.36-.03,1.39-1.38,1.39-3.57,0-7.14,0-10.7,0-1.19,0-1.26-.07-1.26-1.27,0-3.13,0-6.26,0-9.39v-1.12c-.39,1.21-.63,2.23-1.05,3.17-1.85,4.16-5.19,6.61-9.47,7.76-1.86.5-3.83.79-5.76.81-8.12.09-16.25.04-24.37.04-1.44,0-1.48-.03-1.48-1.48C0,30.12,0,15.75,0,1.39,0,.05.04.01,1.4.01,9.66.01,17.92,0,26.18.03c3.26.01,6.37.68,9.17,2.49,5.18,3.35,5.75,11.42,2.44,15.17-.72.81-1.64,1.45-2.47,2.15-.24.2-.52.37-.97.69,2.13.82,3.85,1.89,5.21,3.49,1.35,1.59,2.08,3.47,2.52,5.52.02-.13.05-.26.05-.4,0-.14,0-.28,0-.41,0-9.09,0-18.18,0-27.27C42.12.05,42.16,0,43.54,0,49.33,0,55.12,0,60.91,0c1.29,0,1.35.06,1.65,1.32,2.01,8.3,4.02,16.6,6.04,24.89.04.17.12.33.27.73.15-.53.24-.83.31-1.14,1.97-8.11,3.94-16.22,5.92-24.33Q75.45,0,76.95,0c5.73,0,11.47,0,17.21,0,1.4,0,1.46.06,1.46,1.42,0,14.39,0,28.78,0,43.17,0,1.3-.07,1.37-1.33,1.37-3.62,0-7.24,0-10.87,0-1.12,0-1.23-.11-1.23-1.23,0-8.73,0-17.46,0-26.2v-1.71c-.06-.02-.11-.04-.17-.06"/>
      <path class="cls-1" d="M114.09,23c0,7.11,0,14.22,0,21.34q0,1.62-1.65,1.62c-3.73,0-7.46,0-11.2,0-1.22,0-1.28-.06-1.28-1.24,0-14.5,0-29,0-43.5,0-1.12.09-1.21,1.24-1.21,3.9,0,7.79,0,11.69,0,1.12,0,1.2.09,1.2,1.24,0,7.25,0,14.5,0,21.75"/>
    </g>
  </g>
</svg>