<?xml version="1.0" encoding="UTF-8"?>
<svg id="Capa_2" data-name="Capa 2" xmlns="http://www.w3.org/2000/svg" viewBox="0 0 194.08 39.43">
  <defs>
    <style>
      .cls-1 {
        fill: #fff;
        stroke-width: 0px;
      }
    </style>
  </defs>
  <g id="Capa_1-2" data-name="Capa 1">
    <g>
      <path class="cls-1" d="M121.68,9.83v21.01c0,5.99.54,6.16,3.4,6.5l1.34.17c.42.39.36,1.41-.12,1.64-4.13-.17-8.26-.22-12.4-.12-.76.24-1.92.41-4.04.41-5.83,0-8.98-2.2-12.69-7.46-1.64-2.37-3.34-5.48-4.79-7.68-1.09-1.69-1.76-1.92-3.76-1.92-1.82,0-1.88.06-1.88,1.24v7.23c0,5.99.55,6.16,3.4,6.5l1.34.17c.42.4.36,1.41-.12,1.64-2.69-.11-5.38-.17-8.07-.17s-5.4.06-8.2.17c-.48-.23-.67-1.24-.12-1.64l1.34-.17c2.85-.34,3.4-.51,3.4-6.5V10.17c0-5.42-.06-6.1-2.91-6.38l-1.58-.17c-.42-.4-.42-1.3.06-1.58,3.82-.34,8.98-.51,13.96-.51s8.86.56,11.53,1.92c3.1,1.53,5.34,4.18,5.34,8.25,0,5.2-4.31,7.8-7.28,8.93-.36.17-.24.62,0,.96,4.86,7.62,7.89,12.43,10.74,14.63.55.44,1.17.82,1.83,1.11,2.73-.33,3.26-.59,3.26-6.48V9.83c0-5.99-.55-6.16-3.4-6.5l-1.34-.17c-.42-.4-.36-1.41.12-1.64,2.67.11,5.4.17,8.19.17s5.4-.06,8.07-.17c.49.23.55,1.24.12,1.64l-1.34.17c-2.85.34-3.4.51-3.4,6.5M86.73,6.55v11.75c0,1.81,0,1.92,2.91,1.92,5.95,0,8.68-2.71,8.68-8.08,0-4.46-3.1-8.36-8.38-8.36-3.16,0-3.22.17-3.22,2.77M53.52,6.16v10.22c0,1.47.18,1.53,2.61,1.53,5.71,0,8.31-2.09,8.31-7.17s-3.94-6.95-7.71-6.95c-3.03,0-3.22.11-3.22,2.37M53.52,21.52v8.14c0,5.14.61,7.23,5.89,7.23,4.19,0,7.89-2.54,7.89-7.57,0-5.82-4.25-9.26-10.99-9.26-2.67,0-2.79.34-2.79,1.47M46.48,30.84V10.17c0-5.42-.06-6.1-2.91-6.38l-1.58-.17c-.43-.4-.43-1.3.06-1.58,2.73-.23,7.16-.51,13.84-.51,5.1,0,9.17.45,11.9,1.92,2.79,1.53,4.25,3.78,4.25,7.34,0,3.33-2.61,5.88-6.86,7.17-.24.06-.36.23-.36.34s.12.23.49.34c4.61.68,9.77,3.45,9.77,9.83,0,2.6-.91,5.42-3.7,7.51-2.85,2.2-6.86,3.16-13.78,3.16-2.67,0-5.22-.17-7.53-.17-2.67,0-5.52.06-8.19.17-.49-.23-.55-1.24-.12-1.64l1.33-.17c2.85-.34,3.4-.51,3.4-6.5M141.39,30.84V6.44c0-2.37-.06-2.48-1.64-2.48h-3.4c-5.59,0-7.22.62-9.47,5.2-.42.34-1.7.17-1.94-.4,1.03-3.05,1.94-6.55,2.37-8.53.12-.17.36-.22.67-.22.24,0,.48.06.6.22.3,1.41,1.15,1.47,5.28,1.47h24.76c2.97,0,3.89-.17,4.61-1.47.24-.11.49-.22.73-.22.36,0,.67.11.79.28-.61,2.32-1.09,7.17-.91,8.98-.3.45-1.33.57-1.88.17-.79-4.41-1.94-5.48-8.44-5.48h-3.46c-1.58,0-1.64.11-1.64,2.49v24.4c0,5.99.55,6.16,3.4,6.44l1.96.2,1.67-.26c1.76-.22,2.43-.73,3.34-2.6.73-1.47,1.7-3.84,2.97-6.89l8.32-20.11c.79-1.81,1.33-3.16,1.15-4.12,2.12-.4,4.13-2.71,4.25-2.71.49,0,.79.17,1.03.45.97,2.54,1.76,5.2,2.73,7.74l8.74,23.67c1.4,3.78,1.7,4.18,4.8,4.69l.91.17c.49.4.49,1.36.06,1.64-2.63-.12-5.26-.18-7.89-.17-2.61,0-5.28.11-7.41.17-.49-.28-.55-1.3-.18-1.64l1.34-.17c2.18-.23,2.37-.57,1.58-2.99l-2.85-7.68c-.61-1.52-.79-1.52-2.49-1.52h-8.07c-1.58,0-1.52,0-2.06,1.52l-2.49,6.78c-1.21,3.33-.97,3.5,1.28,3.78l1.76.28c.43.4.36,1.41-.12,1.64-1.94-.11-3.95-.11-6.43-.17-1.94,0-3.76.05-5.8.16h-.14c-3.5-.1-6.19-.16-8.8-.16s-5.52.06-9.41.17c-.49-.23-.54-1.35-.12-1.64l2.55-.28c2.85-.22,3.4-.39,3.4-6.38M168.76,22.59h6.31c1.7,0,1.94-.11,1.46-1.47l-2.55-6.78c-1.03-3-1.4-4.07-1.7-4.46h-.12c-.24.39-.73,1.81-1.82,4.46l-2.55,6.61c-.67,1.64-.49,1.64.97,1.64"/>
      <path class="cls-1" d="M0,5.82C0,3.78,1.78,2.13,3.97,2.12c2.19,0,3.97,1.65,3.97,3.69h0c0,2.04-1.78,3.7-3.97,3.7S0,7.86,0,5.82"/>
      <path class="cls-1" d="M7.94,5.82c0-2.04,1.78-3.69,3.97-3.7,2.19,0,3.97,1.65,3.97,3.69s-1.78,3.69-3.97,3.7c-2.19,0-3.97-1.65-3.97-3.69"/>
      <path class="cls-1" d="M15.88,5.82c-.03-2.04,1.71-3.72,3.91-3.76,2.19-.03,4,1.6,4.03,3.64,0,.04,0,.08,0,.12-.03,2.04-1.84,3.67-4.03,3.63-2.14-.03-3.87-1.64-3.91-3.63"/>
      <path class="cls-1" d="M23.82,5.82c-.03-2.04,1.71-3.72,3.91-3.76,2.19-.03,4,1.6,4.03,3.64,0,.04,0,.08,0,.12-.03,2.04-1.84,3.67-4.03,3.63-2.14-.03-3.87-1.64-3.91-3.63"/>
      <path class="cls-1" d="M31.76,5.82c0-2.04,1.78-3.7,3.97-3.7s3.97,1.65,3.97,3.7c0,2.04-1.78,3.69-3.97,3.69-2.19,0-3.97-1.65-3.97-3.69"/>
      <path class="cls-1" d="M7.94,13.21c0-2.04,1.78-3.69,3.97-3.69s3.97,1.65,3.97,3.69-1.78,3.69-3.97,3.69-3.97-1.65-3.97-3.69M0,13.21C0,11.17,1.78,9.52,3.97,9.52s3.97,1.65,3.97,3.69-1.78,3.69-3.97,3.69S0,15.25,0,13.21"/>
      <path class="cls-1" d="M15.88,13.21c0-2.04,1.78-3.69,3.97-3.69s3.97,1.65,3.97,3.69-1.78,3.69-3.97,3.69-3.97-1.65-3.97-3.69"/>
      <path class="cls-1" d="M23.82,13.21c0-2.04,1.78-3.69,3.97-3.69s3.97,1.65,3.97,3.69-1.78,3.69-3.97,3.69-3.97-1.65-3.97-3.69"/>
      <path class="cls-1" d="M31.76,13.21c0-2.04,1.78-3.69,3.97-3.69s3.97,1.65,3.97,3.69-1.78,3.69-3.97,3.69-3.97-1.65-3.97-3.69"/>
      <path class="cls-1" d="M0,20.6c-.04-2.04,1.71-3.72,3.91-3.76,2.19-.03,4,1.6,4.03,3.64,0,.04,0,.08,0,.12-.03,2.04-1.84,3.67-4.03,3.63C1.76,24.2.03,22.6,0,20.6"/>
      <path class="cls-1" d="M7.94,20.6c0-2.04,1.78-3.69,3.97-3.69s3.97,1.65,3.97,3.69-1.78,3.69-3.97,3.69-3.97-1.65-3.97-3.69"/>
      <path class="cls-1" d="M15.88,20.6c0-2.04,1.77-3.69,3.97-3.7,2.19,0,3.97,1.65,3.97,3.69h0c0,2.04-1.78,3.7-3.97,3.7s-3.97-1.65-3.97-3.69"/>
      <path class="cls-1" d="M23.82,20.6c0-2.04,1.77-3.69,3.97-3.7,2.19,0,3.97,1.65,3.97,3.69h0c0,2.04-1.78,3.7-3.97,3.7s-3.97-1.65-3.97-3.69"/>
      <path class="cls-1" d="M0,27.99c0-2.04,1.78-3.7,3.97-3.7,2.19,0,3.97,1.65,3.97,3.69,0,2.04-1.78,3.7-3.97,3.7h0C1.78,31.69,0,30.03,0,27.99M31.76,20.6c-.03-2.04,1.71-3.72,3.91-3.76,2.19-.03,4,1.6,4.03,3.64v.12c-.04,2.04-1.84,3.67-4.03,3.63-2.14-.03-3.87-1.64-3.91-3.63"/>
      <path class="cls-1" d="M7.94,27.99c0-2.04,1.78-3.7,3.97-3.7s3.97,1.66,3.97,3.7-1.78,3.7-3.97,3.7-3.97-1.66-3.97-3.7"/>
      <path class="cls-1" d="M15.88,27.99c0-2.04,1.78-3.7,3.97-3.7s3.97,1.66,3.97,3.7-1.78,3.7-3.97,3.7-3.97-1.66-3.97-3.7"/>
      <path class="cls-1" d="M23.82,27.99c0-2.04,1.78-3.7,3.97-3.7s3.97,1.66,3.97,3.7-1.78,3.7-3.97,3.7-3.97-1.66-3.97-3.7"/>
      <path class="cls-1" d="M7.94,35.38c0-2.04,1.78-3.69,3.97-3.69,2.19,0,3.97,1.66,3.97,3.7,0,2.04-1.78,3.69-3.97,3.69-2.19,0-3.97-1.66-3.97-3.7M0,35.38C0,33.34,1.78,31.69,3.97,31.69c2.19,0,3.97,1.65,3.97,3.69,0,2.04-1.78,3.69-3.97,3.69C1.78,39.07,0,37.42,0,35.38M31.76,27.99c0-2.04,1.78-3.7,3.97-3.7,2.19,0,3.97,1.66,3.97,3.7,0,2.04-1.78,3.7-3.97,3.7-2.19,0-3.97-1.66-3.97-3.7"/>
      <path class="cls-1" d="M15.88,35.38c0-2.04,1.78-3.69,3.97-3.69h0c2.19,0,3.97,1.65,3.97,3.69s-1.78,3.69-3.97,3.69-3.97-1.65-3.97-3.69h0Z"/>
      <path class="cls-1" d="M23.82,35.38c0-2.04,1.78-3.69,3.97-3.69h0c2.19,0,3.97,1.65,3.97,3.69s-1.78,3.69-3.97,3.69-3.97-1.65-3.97-3.7"/>
      <path class="cls-1" d="M31.76,35.38c0-2.04,1.78-3.69,3.97-3.69,2.19,0,3.97,1.66,3.97,3.7,0,2.04-1.78,3.69-3.97,3.69-2.19,0-3.97-1.66-3.97-3.7"/>
    </g>
  </g>
</svg>