<?xml version="1.0" encoding="UTF-8"?>
<svg id="Capa_2" data-name="Capa 2" xmlns="http://www.w3.org/2000/svg" viewBox="0 0 187.69 41.19">
  <defs>
    <style>
      .cls-1 {
        fill: #fff;
        stroke-width: 0px;
      }
    </style>
  </defs>
  <g id="Capa_1-2" data-name="Capa 1">
    <g>
      <path class="cls-1" d="M187.69,13.74c-.61,1.4-1.25,2.8-1.83,4.22-.23.55-.46.74-1.1.6-.7-.15-1.46-.17-2.17-.07-1.26.18-2.05,1-2.37,2.2-.2.75-.31,1.53-.32,2.3-.04,2.15-.04,4.31,0,6.47,0,.69-.19.99-.93.98-1.8-.03-3.59-.03-5.39,0-.66,0-.93-.25-.93-.92.01-5.4.01-10.8,0-16.2,0-.6.23-.83.83-.83,1.85.02,3.7.02,5.55,0,.65,0,.88.25.86.88-.03,1.06,0,2.12.14,3.23.23-.58.44-1.16.7-1.73.6-1.35,1.38-2.66,3.01-2.72,1.01-.04,2.05.4,3.07.67.31.08.59.31.89.48v.47Z"/>
      <path class="cls-1" d="M121.38,41.19c-2.15-1.43-2.82-3.18-2.05-5.34.77-2.15,3.53-2.92,5.28-1.44.25.21.47.5.6.8.1.22.03.51.03.77-.25-.13-.58-.19-.72-.39-.83-1.16-1.89-1.51-3.11-.95-1.27.57-1.5,1.74-1.53,2.93-.03,1.48.81,2.6,2.02,2.89,1.18.28,2.27-.32,2.68-1.45.06-.17.07-.39.19-.5.13-.13.35-.16.53-.23.07.17.21.35.19.51-.12.88-.64,1.51-1.33,2.02-.19.14-.39.26-.58.39h-2.19Z"/>
      <path class="cls-1" d="M159.23,41.19c-1.42-.55-1.89-1.68-1.88-3.09,0-1.06-.02-2.13.01-3.19.01-.37-.22-.93.42-.96.11,0,.34.6.36.93.08,1.35.08,2.69.16,4.04.06,1,.75,1.58,1.83,1.63,1.05.05,1.92-.48,2.03-1.41.14-1.26.12-2.53.17-3.8.01-.34-.03-.68.04-1.01.03-.16.23-.28.36-.42.13.13.38.26.38.4,0,1.66.03,3.32-.1,4.97-.08.98-.84,1.57-1.74,1.93h-2.03Z"/>
      <path class="cls-1" d="M134.83,41.19c-.73-.4-1.2-.99-1.23-1.85,0-.2.2-.41.31-.61.16.16.34.31.47.49.26.39.4.96.76,1.16.95.53,1.78-.08,1.83-1.31.06-1.35.02-2.69.03-4.04,0-.23-.04-.48.03-.69.05-.17.22-.3.34-.44.14.15.32.28.41.46.07.12.03.3.03.46,0,1.37-.01,2.75,0,4.12,0,.95-.28,1.73-1.11,2.26h-1.88Z"/>
      <path class="cls-1" d="M20.6,14.46c.7-1.61,1.83-2.11,3.35-2,.98.07,1.98,0,2.97.02,1.56.03,2.66,1.1,2.67,2.66.01,6.78,0,13.56.02,20.33,0,.61-.23.87-.81,1.02-5.44,1.36-10.87,1.36-16.31.03-.68-.17-.92-.49-.92-1.19.02-6.65,0-13.3.02-19.95,0-1.8,1.13-2.9,2.94-2.91.94,0,1.88.04,2.81-.01,1.47-.08,2.62.36,3.27,1.99"/>
      <path class="cls-1" d="M126.45,14.22c3.97-2.93,8.21-2.91,11.06.02.12-.06.26-.11.37-.2,2.42-1.95,5.17-2.35,8.11-1.67,2.35.55,3.88,2.3,4.15,4.7.12,1.08.15,2.18.16,3.26.02,2.99,0,5.98,0,8.96,0,1.07-.07,1.13-1.16,1.14-1.75,0-3.49-.02-5.24,0-.72.01-.96-.28-.96-.97.02-3.48.02-6.96,0-10.45,0-1.67-.96-2.48-2.6-2.29-1.14.14-1.88.97-1.91,2.28-.04,1.58-.02,3.17-.02,4.75,0,1.9-.02,3.79,0,5.69,0,.69-.23.99-.95.98-1.82-.03-3.65-.03-5.47,0-.73.01-.95-.31-.94-.99.02-3.27,0-6.55,0-9.82,0-.31,0-.62-.02-.93-.1-1.09-.77-1.87-1.67-1.97-1.49-.17-2.33.28-2.69,1.52-.13.44-.16.92-.16,1.38-.01,3.2,0,6.39,0,9.59,0,1.17-.04,1.21-1.25,1.21-1.69,0-3.39-.02-5.08,0-.71.01-1.04-.2-1.03-.97.02-5.35.02-10.71,0-16.06,0-.74.29-.94.98-.93,1.69.03,3.39,0,5.08.01,1.14,0,1.13,0,1.17,1.1,0,.18.03.35.06.63"/>
      <path class="cls-1" d="M163.06,20.31c-.79.3-1.44.52-2.08.79-1.25.51-2.01,1.44-2.29,2.75-.23,1.09.19,2.06,1.05,2.44.83.37,1.77.03,2.38-.94.93-1.49,1.11-3.14.94-5.04M162.84,28.57c-.56.29-1.02.57-1.52.77-1.2.49-2.38,1.22-3.62,1.35-3.4.38-6.13-2.79-5.64-6.23.39-2.73,2.08-4.3,4.54-5.13,1.82-.62,3.71-1.04,5.57-1.55.27-.07.54-.15.82-.23-.49-1.22-1.97-1.95-3.57-1.55-1.31.33-2.54.98-3.96,1.55-.49-.8-1.11-1.77-1.68-2.78-.06-.11.2-.49.4-.62,1.55-1,3.24-1.65,5.07-1.93,1.82-.28,3.63-.24,5.43.14,3.45.74,5.45,3.17,5.49,6.69.02,2.21-.04,4.42.02,6.63.04,1.34.22,2.68.41,4.02.08.54-.05.72-.57.72-2.03,0-4.07-.01-6.1,0-.55,0-.82-.24-.89-.76-.05-.32-.12-.64-.21-1.1"/>
      <path class="cls-1" d="M109.84,21.11c-.07-.55-.21-.85-.82-.59-.62.27-1.26.5-1.87.79-1.27.62-1.87,1.68-1.95,3.05-.05.81.47,1.67,1.17,1.95.79.31,1.45,0,1.96-.57.34-.38.67-.83.8-1.31.3-1.09.48-2.22.7-3.33M109.38,28.59c-1.06.54-1.99.99-2.91,1.48-3.82,2.04-7.78-.71-7.88-4.53-.07-2.8.97-4.75,4.01-5.96,1.92-.77,3.99-1.19,5.99-1.76.3-.09.6-.17.89-.25-.37-1.19-1.89-1.96-3.52-1.56-1.31.32-2.54.97-3.95,1.54-.47-.77-1.08-1.7-1.61-2.67-.08-.15.18-.61.4-.75,1.5-.99,3.16-1.57,4.93-1.87,2.19-.37,4.36-.29,6.48.39,2.79.9,4.43,3.15,4.47,6.1.03,2.23-.04,4.47.03,6.7.05,1.39.24,2.79.44,4.17.09.58.02.82-.61.82-1.98-.02-3.96-.01-5.94,0-.59,0-.94-.22-1.01-.83-.03-.3-.13-.59-.23-1"/>
      <path class="cls-1" d="M80.06,20.27c-.97.41-1.77.71-2.53,1.07-1.19.57-1.74,1.6-1.92,2.85-.11.78.37,1.7,1.02,2.04.73.38,1.42.25,2.11-.48,1.42-1.51,1.38-3.37,1.32-5.49M79.99,17.55c-.71-1.29-2.01-1.94-3.6-1.54-1.31.33-2.54.98-3.95,1.54-.47-.77-1.08-1.7-1.6-2.68-.08-.15.19-.61.41-.75,1.52-1.01,3.21-1.59,5-1.88,2.01-.33,4-.24,5.96.28,3.05.81,4.88,3.16,4.91,6.32.02,2.08-.05,4.16.03,6.24.06,1.57.27,3.14.47,4.71.06.45-.05.64-.49.64-2.08,0-4.17.02-6.25-.03-.28,0-.61-.38-.79-.67-.17-.29-.17-.68-.27-1.14-.4.2-.69.35-.98.49-1.48.74-2.88,1.69-4.64,1.69-2.68,0-5.42-2.49-5.19-5.85.19-2.71,1.68-4.51,4.17-5.4,1.9-.68,3.89-1.14,5.85-1.69.3-.08.6-.16.96-.26"/>
      <path class="cls-1" d="M96.82,22.55c0,2.8.02,5.61-.01,8.41-.01,1.03-.11,2.08-.27,3.1-.4,2.47-1.87,4.05-4.28,4.61-1.43.33-2.93.35-4.4.5-.53.05-.73-.22-.75-.74-.03-.77.02-1.38.91-1.73.8-.32,1.32-.96,1.32-1.93,0-1.01.13-2.02.13-3.03.01-6.02,0-12.05,0-18.07,0-1.19,0-1.19,1.16-1.19,1.75,0,3.49.02,5.23,0,.71-.01.97.27.96.96-.02,3.04,0,6.08,0,9.11"/>
      <path class="cls-1" d="M63.1,30.78c-3.8-.03-6.63-.86-8.89-3.15-3-3.04-3.09-8.67-.2-11.84,3.45-3.78,9.42-4.83,13.98-2.49.49.25.67.46.35,1-.46.78-.85,1.61-1.24,2.43-.23.5-.53.55-1.06.45-1.01-.19-2.05-.4-3.06-.32-1.71.13-2.89,1.17-3.17,2.85-.2,1.17-.23,2.46.06,3.6.52,2.06,2.46,3.03,4.83,2.7.08-.01.15-.03.23-.04q1.72-.32,2.46,1.29c.23.49.42,1.01.69,1.48.31.53.12.79-.39,1.01-1.68.71-3.42,1.1-4.59,1.03"/>
      <path class="cls-1" d="M32.29,35.17c-.03-.4-.06-.73-.06-1.06,0-6.08-.02-12.15,0-18.23,0-1.48-.42-2.66-1.9-3.24.05-.06.08-.13.1-.13,2.76,0,5.52-.04,8.28,0,1.35.02,2.41,1.12,2.42,2.48.02,4.83.02,9.66-.01,14.49,0,.36-.24.82-.52,1.05-2.32,1.87-4.87,3.37-7.64,4.5-.18.07-.39.08-.67.14"/>
      <path class="cls-1" d="M10.77,12.49c-1.52.74-1.85,2.03-1.84,3.54.02,6.03,0,12.06,0,18.08,0,.33-.04.65-.07,1.19-1.05-.46-2.01-.78-2.86-1.29-1.83-1.09-3.61-2.26-5.37-3.47-.32-.22-.59-.76-.6-1.15C0,24.64,0,19.88,0,15.13c0-1.43,1.04-2.5,2.48-2.62.21-.02.42-.01.62-.01h7.66"/>
      <path class="cls-1" d="M20.59,0c3.07,0,5.5,2.4,5.48,5.41-.02,2.94-2.51,5.38-5.48,5.37-2.9,0-5.4-2.48-5.41-5.37C15.16,2.45,17.61,0,20.59,0"/>
      <path class="cls-1" d="M8.09,1.88c2.47,0,4.43,1.94,4.43,4.38,0,2.42-1.99,4.39-4.43,4.41-2.52.02-4.48-1.91-4.48-4.41,0-2.52,1.91-4.38,4.48-4.37"/>
      <path class="cls-1" d="M33.1,10.67c-2.44,0-4.45-1.96-4.47-4.37-.02-2.43,1.95-4.4,4.4-4.41,2.59,0,4.51,1.84,4.52,4.34.01,2.51-1.92,4.44-4.45,4.44"/>
      <path class="cls-1" d="M93.07,10.79c-.94,0-1.88-.01-2.81,0-.56.01-.81-.2-.8-.77.02-1.84.01-3.69,0-5.53,0-.53.22-.75.75-.74,1.93.01,3.85.01,5.78,0,.61,0,.83.27.83.85-.01,1.79-.01,3.58,0,5.37,0,.6-.27.84-.86.82-.96-.02-1.93,0-2.89,0"/>
      <path class="cls-1" d="M152.58,37.13c.36,0,.73.02,1.09,0,.65-.04,1.07-.39,1.15-1.04.09-.68-.1-1.29-.86-1.43-.65-.12-1.34-.08-2-.16-.78-.09-1.05.22-1.03,1.01.05,1.78-.12,1.63,1.65,1.62M154.78,37.6c1.16.93.68,2.22,1.01,3.34-.62.22-.86-.06-.93-.58-.06-.49-.09-.98-.17-1.47-.1-.63-.49-.95-1.13-.96-.65,0-1.3,0-1.96,0-.47,0-.65.22-.65.67,0,.62.03,1.25-.03,1.87-.02.19-.27.36-.41.53-.12-.17-.35-.34-.35-.52-.02-2.03-.03-4.05.01-6.08,0-.19.37-.52.58-.53,1.07-.05,2.14-.06,3.2,0,.75.04,1.33.43,1.63,1.16.31.77.14,1.48-.37,2.11-.11.14-.24.26-.43.45"/>
      <path class="cls-1" d="M167.44,37.13c.36,0,.73.02,1.09,0,.65-.04,1.07-.38,1.16-1.04.09-.68-.1-1.29-.86-1.43-.65-.12-1.34-.09-2-.16-.78-.09-1.05.22-1.03,1.01.05,1.78-.12,1.63,1.65,1.63M169.64,37.6c1.15.91.68,2.2,1.01,3.33-.66.26-.88-.07-.94-.61-.06-.51-.1-1.03-.2-1.54-.1-.52-.46-.81-1-.82-.7-.02-1.41-.06-2.11.02-.22.02-.54.38-.57.61-.08.61,0,1.25-.06,1.86-.02.2-.25.38-.38.56-.13-.19-.37-.38-.38-.57-.03-1.98-.01-3.95-.02-5.92,0-.52.28-.67.74-.67.94,0,1.88-.01,2.82,0,.84.02,1.53.35,1.87,1.16.36.86.15,1.63-.5,2.28-.07.07-.14.15-.28.31"/>
      <path class="cls-1" d="M130.92,38.15c-.44-1.15-.82-2.14-1.2-3.14-.07,0-.13,0-.2,0-.39,1.01-.77,2.03-1.2,3.14h2.59ZM132.55,41.14c-.24-.23-.63-.42-.68-.68-.29-1.42-1.17-1.73-2.49-1.62-1.35.11-1.35.02-1.85,1.35-.17.45-.29.97-1.09.75.08-.27.12-.52.21-.75.75-1.88,1.5-3.75,2.29-5.61.12-.29.45-.66.7-.67.24-.01.6.35.72.63.81,1.94,1.56,3.9,2.33,5.85.06.16.07.34.11.51-.09.08-.17.16-.26.24"/>
      <path class="cls-1" d="M176.11,38.13c-.43-1.12-.81-2.12-1.2-3.12-.06.01-.12.03-.19.04-.39,1-.77,2-1.19,3.08h2.58ZM178.01,40.92c-.55.25-.86.01-.94-.42-.29-1.49-1.24-1.79-2.6-1.67-1.25.11-1.25.03-1.7,1.23-.17.45-.22,1.08-1.09.89.04-.23.05-.45.13-.65.78-1.95,1.56-3.9,2.38-5.83.11-.26.43-.54.69-.58.19-.03.54.29.64.53.84,2.04,1.64,4.09,2.44,6.14.04.09.03.2.05.35"/>
      <path class="cls-1" d="M140.92,38.14h2.6c-.42-1.12-.8-2.13-1.18-3.14-.06,0-.13.02-.19.03-.39.98-.78,1.96-1.23,3.11M145.42,40.73c-.08.08-.18.27-.27.26-.18-.02-.45-.08-.53-.22-.23-.4-.4-.84-.56-1.28-.16-.46-.45-.68-.94-.63-.18.02-.37.02-.55,0-1.31-.2-2.28.1-2.57,1.59-.04.22-.46.36-.7.54-.01-.27-.12-.58-.03-.82.74-1.89,1.5-3.77,2.29-5.63.12-.28.46-.59.74-.64.18-.03.55.34.65.6.79,1.92,1.54,3.86,2.31,5.8.05.12.09.25.15.43"/>
      <path class="cls-1" d="M179.25,37.45c0-.96-.02-1.92.02-2.88,0-.23.23-.45.35-.68.15.23.41.45.42.68.04,1.64.04,3.27.01,4.91-.01.67.2.95.89.91.86-.04,1.72-.02,2.58.01.17,0,.34.22.51.34-.16.1-.32.28-.49.28-1.22.02-2.45.01-3.67.02-.49,0-.62-.29-.62-.71,0-.96,0-1.92,0-2.88"/>
    </g>
  </g>
</svg>