<?xml version="1.0" encoding="UTF-8"?>
<svg id="Capa_2" data-name="Capa 2" xmlns="http://www.w3.org/2000/svg" viewBox="0 0 187.69 48.06">
  <defs>
    <style>
      .cls-1 {
        fill: #fff;
        stroke-width: 0px;
      }
    </style>
  </defs>
  <g id="Capa_1-2" data-name="Capa 1">
    <g>
      <path class="cls-1" d="M13.83,48.06c.02-.67-.07-1.35.06-2,.87-4.26,1.79-8.5,2.67-12.75.31-1.5.14-1.72-1.43-1.73-4.41-.01-8.82,0-13.24-.02-.54,0-1.08-.13-1.9-.24.43-.54.65-.83.9-1.11.13-.14.3-.25.45-.37q5.94-4.77,13.6-4.76c1.62,0,3.24-.06,4.85.08,3.51.31,5.23,2.67,4.52,6.07-.62,2.96-1.15,5.95-1.93,8.86-.29,1.09-1.02,2.22-1.86,2.99-1.93,1.77-4.06,3.33-6.11,4.97h-.59Z"/>
      <path class="cls-1" d="M170.44,24.35c3.14,0,6.02.02,8.89-.03.29,0,.76-.46.84-.78.43-1.8.82-3.62,1.13-5.44.17-1.04-.36-1.71-1.47-1.72-2.3-.02-4.61-.04-6.91.03-.33.01-.86.47-.94.8-.55,2.27-1,4.56-1.54,7.14M177.44,36.69c.51-2.5.97-4.74,1.47-7.2-3.08,0-6.01-.03-8.93.04-.29,0-.73.58-.82.96-.43,1.7-.79,3.43-1.12,5.16-.15.77-.49,1.07-1.28,1.04-1.51-.05-3.03-.01-4.72-.01.09-.62.12-1.09.21-1.54,1.59-7.51,3.2-15.01,4.76-22.52.21-1.02.61-1.34,1.65-1.33,4.81.05,9.62,0,14.43.03,3.46.02,5.16,2.12,4.45,5.44-1.31,6.17-2.64,12.33-3.9,18.5-.21,1.05-.59,1.51-1.72,1.44-1.41-.1-2.83-.02-4.47-.02"/>
      <path class="cls-1" d="M155.12,19.37c.18-2.77-.05-2.99-2.72-2.99-1.42,0-2.85-.04-4.27.01-1.87.07-3.33,1.91-2.79,3.66.15.47.95.94,1.52,1.05,2.84.54,5.71.95,8.56,1.44,3.38.58,4.33,1.97,3.64,5.29-.27,1.29-.52,2.59-.84,3.87-.75,2.97-3.22,4.95-6.3,4.98-3.63.04-7.26.05-10.89,0-2.98-.04-4.69-2.15-4.18-5.06q.51-2.96,3.52-2.96h2.84c-.04.55-.07.93-.11,1.31-.08,1.01.38,1.63,1.4,1.66,2.06.04,4.12.08,6.18-.01,1.5-.06,2.96-2.55,2.29-3.91-.2-.4-.92-.67-1.44-.76-2.95-.53-5.91-.96-8.85-1.47-3.01-.51-4.07-2.11-3.45-5.1.25-1.24.49-2.49.77-3.73.73-3.26,3.15-5.26,6.49-5.29,3.53-.03,7.07-.03,10.6,0,3.32.03,4.98,2.03,4.33,5.27-.67,3.37-.13,2.68-3.24,2.75-1.02.03-2.03,0-3.06,0"/>
      <path class="cls-1" d="M95.12,21.33h12.87c-.3,1.57-.49,2.97-.89,4.31-.1.35-.85.72-1.3.73-3.43.06-6.87.08-10.3,0-1.18-.03-1.61.38-1.83,1.5-.73,3.72-.72,3.78,3.14,3.78h10.01c-.32,1.56-.55,2.95-.93,4.29-.09.32-.67.72-1.03.72-4.66.04-9.32.09-13.98,0-2.71-.06-4.44-2.21-3.9-4.9,1.3-6.51,2.71-13,4.14-19.49.08-.37.68-.88,1.04-.88,6.13-.04,12.27-.01,18.4,0,.09,0,.18.07.48.19-.29,1.37-.51,2.8-.93,4.16-.1.33-.89.62-1.37.62-3.73.05-7.46.07-11.19,0-1.09-.02-1.62.29-1.75,1.39-.13,1.1-.42,2.19-.69,3.58"/>
      <path class="cls-1" d="M119.24,24.29c2.67,0,5.12.1,7.54-.07.62-.05,1.46-.89,1.69-1.54.52-1.46.78-3.02,1.05-4.55.19-1.07-.39-1.71-1.47-1.73-2.1-.05-4.21-.05-6.32.02-.35.01-.9.44-.98.77-.54,2.27-.99,4.56-1.52,7.11M110.69,36.69c.64-3.05,1.23-5.87,1.82-8.68,1.08-5.11,2.18-10.22,3.22-15.33.2-.98.54-1.39,1.61-1.37,4.66.06,9.32,0,13.98.03,3.43.02,5.04,1.97,4.4,5.33-.49,2.59-1.04,5.17-1.66,7.73-.74,3.11-3.29,5.06-6.52,5.08-2.75.02-5.49.04-8.24-.01-.91-.02-1.32.3-1.47,1.19-.29,1.63-.7,3.24-.99,4.88-.16.9-.58,1.21-1.48,1.18-1.46-.06-2.93-.02-4.67-.02"/>
      <path class="cls-1" d="M79.28,19.36c.14-2.78-.05-2.98-2.66-2.99-1.47,0-2.95.02-4.42,0-1.39-.03-2.22.57-2.5,1.95-.78,3.73-1.59,7.46-2.36,11.19-.3,1.48.22,2.11,1.74,2.13,1.77.03,3.53,0,5.3,0,1.36,0,2.2-.62,2.56-1.96.11-.39.51-.97.8-.98,1.7-.09,3.4-.05,5.18-.05-.3,2.44-.65,4.65-2.48,6.28-1.22,1.09-2.58,1.75-4.25,1.74-3.68,0-7.36.03-11.05-.01-2.96-.04-4.72-2.03-4.16-4.92,1.01-5.28,2.13-10.54,3.34-15.78.65-2.82,3.18-4.63,6.05-4.65,3.58-.02,7.17-.03,10.75,0,3.47.03,5.15,2.09,4.41,5.47-.67,3.08-.06,2.48-3.11,2.55-1.02.02-2.05,0-3.15,0"/>
      <path class="cls-1" d="M40.55,0c-.03.72.02,1.27-.09,1.79-.88,4.26-1.79,8.5-2.69,12.76-.35,1.68-.19,1.88,1.55,1.89,4.36.01,8.73,0,13.1.02.54,0,1.08.14,2.06.28-.82.75-1.33,1.16-1.78,1.63-3.63,3.78-7.99,5.37-13.24,4.61-1.49-.22-3.04.02-4.56-.07-3.84-.23-5.63-2.56-4.86-6.31.59-2.92,1.15-5.85,1.88-8.73.25-.98.82-2.05,1.58-2.71,1.95-1.71,4.07-3.22,6.13-4.79.18-.13.43-.17.92-.37"/>
      <path class="cls-1" d="M1.88,22.94c.21-.58.23-.83.37-.99.22-.26.52-.44.76-.68,3.82-3.92,8.38-5.7,13.89-4.83,1.3.21,2.35-.33,3.36-1.14,2.25-1.81,4.55-3.55,6.86-5.28.38-.28.93-.33,1.41-.48.03.46.16.93.08,1.37-.36,1.92-.79,3.82-1.2,5.73-.85,3.99-3.62,6.28-7.78,6.31-4.85.03-9.7,0-14.55,0H1.88"/>
      <path class="cls-1" d="M52.41,25.72c-.53.46-1.1.89-1.59,1.39-3.6,3.77-7.97,5.26-13.13,4.47-1.52-.23-2.73.37-3.89,1.32-2.13,1.73-4.32,3.38-6.51,5.02-.39.29-.93.39-1.41.57-.05-.5-.22-1.02-.14-1.49.34-1.87.75-3.73,1.14-5.59.81-3.91,3.6-6.26,7.64-6.31,4.36-.05,8.73-.01,13.09,0,1.08,0,2.16-.02,3.23,0,.46,0,.92.09,1.39.15.06.16.12.32.18.48"/>
    </g>
  </g>
</svg>