<?xml version="1.0" encoding="UTF-8"?>
<svg id="Capa_2" data-name="Capa 2" xmlns="http://www.w3.org/2000/svg" viewBox="0 0 187.69 55.27">
  <defs>
    <style>
      .cls-1 {
        fill: #fff;
        stroke-width: 0px;
      }
    </style>
  </defs>
  <g id="Capa_1-2" data-name="Capa 1">
    <g>
      <path class="cls-1" d="M13.61,0c2.34.64,4.69,1.3,7.04,1.93.65.17.85.56.84,1.2-.04,1.58-.01,3.16-.01,4.9-.57-.2-.99-.33-1.39-.49-2.83-1.17-5.69-2.28-8.84-2.01-.8.07-1.64.27-2.36.62-1.48.72-1.62,2.35-.27,3.32.78.56,1.7.95,2.58,1.35,2.42,1.07,4.96,1.93,7.28,3.19,3.15,1.72,4.61,4.56,4.26,8.16-.35,3.63-2.45,6.02-5.81,7.17-5.48,1.86-10.77,1.08-15.81-1.65-.24-.13-.5-.5-.5-.77-.04-1.83-.02-3.65,0-5.48,0-.08.07-.15.16-.33.61.37,1.21.71,1.79,1.07,2.28,1.43,4.71,2.44,7.44,2.61,1.38.09,2.76.02,3.98-.73,1.29-.79,1.53-2.41.39-3.4-.79-.68-1.76-1.2-2.72-1.61-1.99-.86-4.07-1.5-6.03-2.41C2.82,15.33.71,13.37.14,10.13-.49,6.43.99,3.18,4.37,1.53c1.45-.72,3.1-1.03,4.67-1.53h4.58Z"/>
      <path class="cls-1" d="M187.69,11.52c-.58,1.75-1.17,3.5-1.78,5.33-.66-.33-1.22-.63-1.8-.89-2.11-.96-3.8-.52-5.11,1.37-1.25,1.81-2.13,3.72-1.97,6.03.13,1.85,0,3.71.04,5.57.01.69-.17.98-.93.95-1.58-.06-3.17-.04-4.76-.01-.56.01-.76-.18-.76-.73.01-6.18.01-12.36,0-18.54,0-.64.32-.76.86-.75,1.56.01,3.11.03,4.67,0,.68-.01.93.24.91.9-.03,1.43,0,2.85.18,4.35.16-.3.29-.62.49-.9.75-1.07,1.41-2.21,2.3-3.16,1.66-1.77,3.67-2.02,5.83-.9.62.32,1.22.68,1.83,1.02v.37Z"/>
      <path class="cls-1" d="M118.98,0c1.88.94,2.37,2.44,1.32,4.27-.97,1.68-2.38,2.76-4.44,2.71-1.57-.04-2.59-1.28-2.3-2.84.33-1.83,1.47-3.02,3.12-3.78.27-.13.56-.24.84-.36h1.47Z"/>
      <path class="cls-1" d="M71.25,32.68c-2.67,0-5.24-.29-7.7.07-3.08.45-5.11,2.42-5.83,5.56-.41,1.81-.86,3.61-1.28,5.42-.42,1.77-.52,1.82-2.33,1.85-3.51.07-2.66-.66-3.69,2.92-.02.06-.07.14-.04.17.15.23.31.65.47.65,2.47-.02,4.98.17,7.39-.24,3.04-.52,5.25-2.29,5.97-5.54.5-2.26,1.19-4.47,1.76-6.71.16-.61.47-.87,1.09-.86.92.02,1.83.05,2.74-.03.31-.03.77-.3.86-.56.27-.86.4-1.76.6-2.72M53.49,36.1h-3.33c-.05-.08-.1-.15-.15-.23.52-.64.99-1.33,1.55-1.93,3.56-3.8,7.79-6.46,13.04-7.19,2.52-.35,5.02-.13,7.24,1.31,3,1.95,3.93,4.88,3.63,8.24-.19,2.13.13,1.9-2.15,1.91-1.07,0-2.14.05-3.21-.01-.82-.05-1.27.2-1.38,1.04-.05.38-.18.75-.32,1.29h5.84c-.08,1.8-.74,2.46-2.29,2.45-.98,0-1.96.06-2.93-.02-.99-.09-1.49.3-1.62,1.25-.04.3-.13.59-.24,1.1h4.45c.05.12.11.24.16.36-1.05,1.17-2.01,2.42-3.15,3.49-3.34,3.13-7.19,5.36-11.82,5.94-2.57.32-5.09.13-7.3-1.39-2.94-2.03-3.7-5.02-3.4-8.36.18-2.1.26-2.1,2.35-2.1h1.28c2.09,0,2.23-.13,2.56-2.39h-4.89c.04-1.68.84-2.49,2.34-2.49.4,0,.79,0,1.19,0q2.07,0,2.55-2.31"/>
      <path class="cls-1" d="M137.73,19.74h-.04c0-1.37.02-2.74-.02-4.1-.01-.33-.14-.8-.37-.95-2.45-1.56-5.95-1.31-7.33,1.73-.91,2.02-.98,4.13-.28,6.23,1.11,3.38,4.71,4.42,7.47,2.15.3-.24.52-.74.54-1.14.07-1.3.03-2.61.03-3.92M137.69,10.59c0-2.71,0-5.26,0-7.82,0-.55.01-1.1,0-1.64,0-.58.26-.81.84-.8,1.5.02,2.99.05,4.49,0,.86-.04,1.09.28,1.08,1.1-.03,6.18-.02,12.37-.02,18.55,0,2.96-.03,5.91.02,8.86.01.9-.29,1.17-1.16,1.13-1.22-.06-2.44-.01-3.66-.01q-1.51,0-1.66-1.46c-.38.24-.73.47-1.09.67-3.94,2.22-9,1.08-11.68-2.61-2.65-3.65-2.75-9.38-.22-13.11,2.33-3.44,6.91-4.85,11.26-3.47.55.17,1.09.37,1.78.61"/>
      <path class="cls-1" d="M51.46,12.81c1.41-1.66,2.87-2.78,4.83-3.19,4.67-.96,8.64,2.04,8.85,6.78.09,2.07.06,4.14.12,6.21.02.66-.22.92-.89,1.09-1.82.46-3.61,1.05-5.53,1.62,0-.27,0-.59,0-.91-.05-2.43.08-4.89-.2-7.29-.34-2.91-3.08-3.88-5.36-2.02-1.14.92-1.89,1.98-1.81,3.64.14,3.25.05,6.52.03,9.78-.01,1.29-.05,1.29-1.34,1.29-1.41,0-2.81-.02-4.21,0-.64.01-.85-.24-.85-.86.01-9.26.01-18.53,0-27.79,0-.62.2-.87.85-.86,1.53.03,3.05.04,4.58,0,.69-.02.91.26.91.91,0,3.23.02,6.46.03,9.68,0,.54,0,1.09,0,1.89"/>
      <path class="cls-1" d="M161.87,17.56c-.09-2.39-1.64-4.06-3.72-4.19-2.4-.16-4.15,1.15-4.59,3.38-.13.65.1.82.68.81,1.74-.01,3.47,0,5.21,0h2.42M167.3,23.61c0,1.4.05,2.58-.03,3.74-.02.27-.41.58-.7.77-2.64,1.69-5.58,2.31-8.66,2.15-1.54-.08-3.12-.32-4.57-.82-4.19-1.44-6.47-4.51-6.66-8.91-.18-4.21,1.36-7.69,5.21-9.76,5.97-3.21,14.95-.67,15.69,8.2.2,2.34.2,2.03-1.95,2.04-3.7.01-7.39,0-11.09,0-.38,0-.77.05-1.14.07.05,3.22,2.4,4.77,4.72,5.19,2.92.54,5.49-.31,7.91-1.85.36-.23.71-.47,1.28-.84"/>
      <path class="cls-1" d="M97.52,17.4c.1.05.16.11.21.11,2.53.02,5.06.03,7.58.04.67,0,.6-.41.5-.88-.49-2.24-2.3-3.5-4.75-3.3-1.96.16-3.41,1.79-3.55,4.03M111.28,23.66c0,1.31.05,2.44-.03,3.55-.02.31-.38.68-.68.88-2.68,1.75-5.68,2.29-8.82,2.19-2-.07-3.95-.43-5.74-1.36-4.4-2.27-6.34-7.06-4.93-12.06,1.39-4.94,5.78-7.79,11.32-7.36,4.82.37,8.5,3.95,9.11,8.87q.33,2.64-2.29,2.64c-3.6,0-7.2,0-10.8,0-1.05,0-1.2.18-.94,1.18.54,2.08,1.91,3.35,3.95,3.92,2.57.71,5.02.28,7.34-.97.8-.43,1.56-.92,2.51-1.5"/>
      <path class="cls-1" d="M88.16,29.8h-6.18c-.02-.36-.06-.68-.06-1,0-3.38,0-6.76,0-10.15,0-.73-.05-1.46-.16-2.18-.33-2.38-2.73-3.52-4.74-2.19-1.56,1.04-2.72,2.33-2.58,4.48.15,2.42.03,4.86.03,7.38-.19-.05-.33-.05-.4-.11-1.49-1.37-3.29-2.07-5.25-2.4-.57-.1-.78-.35-.78-.91,0-4.02.01-8.04,0-12.07,0-.59.25-.81.83-.8,1.62.02,3.24.02,4.85,0,.56,0,.76.25.75.78-.02.57,0,1.13,0,1.87.6-.53,1.04-.94,1.5-1.32,3.64-2.99,9.44-1.99,11.45,2.04.45.9.75,1.97.77,2.97.09,4.38.05,8.77.05,13.16,0,.12-.04.24-.07.45"/>
      <path class="cls-1" d="M42.24,15.47c-.67-.26-1.17-.46-1.68-.64-2.04-.71-4.12-.91-6.19-.15-2.48.91-3.63,3.08-3.34,6.14.22,2.37,2.03,4.29,4.4,4.76,2.07.4,3.99-.16,5.91-.82.34-.12.68-.23,1.21-.41,0,1.51.02,2.89-.03,4.27,0,.18-.32.43-.55.51-3.92,1.39-7.89,1.75-11.8.11-3.74-1.57-5.74-4.46-5.99-8.55-.42-7.02,4.85-11.1,10.72-11.14,2.16-.01,4.33.58,6.49.92.59.09.87.44.85,1.08-.04,1.26-.01,2.53-.01,3.92"/>
      <path class="cls-1" d="M113.99,19.93c0-3.04.02-6.09-.01-9.13,0-.7.19-.98.93-.96,1.49.05,2.99.03,4.48,0,.66-.01.93.21.93.89-.02,6.12-.02,12.24,0,18.35,0,.63-.24.87-.86.87-1.49-.02-2.99-.03-4.48.01-.75.02-1.01-.23-1-1,.04-3.01.02-6.03.02-9.04"/>
      <path class="cls-1" d="M91.92,50.52c-3.21,0-6.3,0-9.38,0-.49,0-.63-.2-.63-.66,0-5.27.01-10.54,0-15.81,0-.61.28-.79.83-.79,2.72.01,5.44.02,8.15,0,1.1,0,.74.79.81,1.35.07.64-.07,1.05-.86,1.03-1.83-.03-3.66.01-5.5-.02-.71-.01-.99.24-.96.95.04,1,.06,2.01,0,3.01-.06.89.37,1.12,1.14,1.11,1.68-.01,3.36.04,5.04-.02.74-.03,1.01.2.95.91-.05.66.22,1.45-.96,1.41-1.74-.06-3.48,0-5.22-.03-.66-.01-.95.19-.93.88.03,1.19.03,2.38,0,3.56-.02.65.26.85.87.84,1.8-.02,3.6-.01,5.4,0,1.23,0,1.23,0,1.26,1.27,0,.3,0,.6,0,1"/>
      <path class="cls-1" d="M108.09,43.67c1.56,0,3.05.01,4.53,0,.84,0,1-.27.71-1.09-.41-1.17-1.44-1.74-2.86-1.59-1.24.13-2.19,1.13-2.39,2.68M115.58,47.45c.44,1.55.16,2.17-1.3,2.77-2.64,1.08-5.41.66-7.06-1.08-2.49-2.62-2.1-7.46.76-9.39,2.91-1.96,6.69-.58,7.58,2.79.16.58.22,1.19.3,1.8.09.62-.18.87-.82.86-2.01-.02-4.03-.01-6.04,0-1.03,0-1.12.16-.77,1.11.6,1.59,2.07,2.49,3.89,2.17,1.17-.21,2.3-.68,3.45-1.03"/>
      <path class="cls-1" d="M181.93,48.07s.06.07.06.09c.1,2.22.32,2.09-1.95,2.48-2.39.41-4.57-.02-6.13-2.1-1.51-2.01-1.41-5.7.16-7.64,1.59-1.96,4.6-2.6,7.09-1.44.3.14.57.59.64.94.11.51.03,1.07.03,1.74-2.05-1.05-4.01-1.81-5.77.15-.98,1.09-1.1,3.25-.33,4.57.63,1.09,1.65,1.69,2.87,1.68,1.1,0,2.2-.3,3.35-.47"/>
      <path class="cls-1" d="M130.55,47.96c.1.15.13.17.13.2.24,1.96-.05,2.27-2.04,2.52-1.66.21-3.23.08-4.66-.85-2.31-1.49-3.1-4.72-1.9-7.7.95-2.35,3.53-3.71,6.27-3.12,2.44.53,2.3.35,2.09,3.07-.51-.24-.98-.5-1.47-.69-1.85-.74-3.85-.09-4.59,1.47-.96,2.02-.41,4.24,1.31,5.23,1.13.64,2.34.59,3.55.25.43-.12.86-.25,1.3-.38"/>
      <path class="cls-1" d="M136.43,41.18c1.47-1.49,2.81-2.84,4.33-4.37,0,.62.01,1.09,0,1.55-.02.54.23.77.77.76.67-.02,1.34.02,2.02,0,.82-.03.74.53.73,1.05,0,.53.14,1.16-.75,1.13-.64-.02-1.28.01-1.92,0-.56-.01-.86.19-.85.79.02,1.71-.02,3.41.02,5.12.02.91.61,1.47,1.56,1.4.8-.07,1.58-.34,2.37-.53.47,1.95-.52,2.9-2.88,2.72-2.23-.17-3.44-1.45-3.46-3.68-.02-1.55-.05-3.11.01-4.66.03-.86-.23-1.26-1.13-1.16-.25.03-.51-.06-.83-.11"/>
      <path class="cls-1" d="M99.85,50.47c-.59.03-1.17.14-1.72.05-.23-.04-.54-.52-.54-.8-.05-2.01-.02-4.02-.02-6.02,0-3.1-.01-6.21.01-9.31,0-.35.16-.99.32-1.01.61-.09,1.25-.01,1.88.06.08,0,.16.37.16.57,0,5.36,0,10.71,0,16.07,0,.11-.05.23-.09.41"/>
      <path class="cls-1" d="M152.88,41.39c.62-.7,1.06-1.28,1.59-1.76,1.17-1.05,3.1-.87,4.09.36.13.16.17.52.08.71-.25.51-.6.98-.95,1.52-.35-.22-.65-.42-.95-.6-1.29-.74-2.55-.47-3.26.84-.33.62-.54,1.37-.57,2.07-.08,1.7-.05,3.4-.02,5.11.01.64-.15.92-.87.9-1.52-.04-1.53,0-1.53-1.51,0-2.95.03-5.9-.02-8.85-.02-.96.41-1.09,1.21-1.08.8,0,1.32.14,1.2,1.09-.04.33,0,.66,0,1.2"/>
      <path class="cls-1" d="M164.83,50.54c-.03-.33-.08-.57-.08-.81,0-3.22.03-6.45-.02-9.67-.02-1.01.57-.92,1.23-.95.76-.04,1.09.17,1.07,1.02-.04,3.16-.03,6.32,0,9.49,0,.68-.14,1.04-.91.93-.41-.06-.84-.01-1.3-.01"/>
      <path class="cls-1" d="M166.38,34.56c.58.08.84.46.78,1.08-.08.78-.98,1.54-1.73,1.45-.57-.06-.87-.39-.83-.98.05-.83.93-1.62,1.79-1.55"/>
    </g>
  </g>
</svg>