<?xml version="1.0" encoding="UTF-8"?>
<svg id="Capa_2" data-name="Capa 2" xmlns="http://www.w3.org/2000/svg" viewBox="0 0 194.08 55.3">
  <defs>
    <style>
      .cls-1 {
        fill: #fff;
        stroke-width: 0px;
      }
    </style>
  </defs>
  <g id="Capa_1-2" data-name="Capa 1">
    <g>
      <path class="cls-1" d="M37.64,19.26c0,2.57-.01,5.02.03,7.46,0,.16.45.44.7.44,2.03.03,4.06.05,6.09,0,.64-.02,1.31-.17,1.92-.39,1.7-.64,2.55-2.05,2.46-3.97-.07-1.67-1.06-2.95-2.82-3.28-1.31-.25-2.67-.21-4.01-.24-1.42-.04-2.85,0-4.38,0M37.67,37.95c2.89,0,5.67.1,8.43-.06.94-.06,1.98-.59,2.76-1.22,1.88-1.54,1.62-4.79-.5-5.87-1.1-.56-2.39-.79-3.62-.88-2.05-.14-4.12-.04-6.18-.04-.29,0-.57.03-.89.05v8.01ZM48.54,28.18c.65.36,1.25.64,1.79,1.01,3.22,2.2,3.34,7.36.25,9.8-1.52,1.2-3.25,1.66-5.06,1.7-3.02.07-6.04.05-9.06.04-.98,0-1.47-.57-1.47-1.66,0-6.95,0-13.89,0-20.84,0-1.03.44-1.68,1.26-1.68,3.35.02,6.69.02,10.03.19,1.55.08,2.96.84,4.03,2.13,2.01,2.41,1.65,6.48-.73,8.49-.32.27-.67.52-1.05.81"/>
      <path class="cls-1" d="M61.79,28.7c2.55,0,5,.02,7.44-.02.5,0,1-.18,1.48-.35,2.08-.73,3.16-2.4,3.08-4.7-.07-2.04-1.31-3.79-3.4-4.04-2.83-.34-5.7-.29-8.6-.41v9.52ZM70.86,30.93c1.68,2.37,3.27,4.62,4.87,6.87.13.18.26.36.39.54.58.86.53,1.71-.12,2.24-.66.54-1.44.39-2.04-.42-.64-.87-1.25-1.76-1.87-2.64-1.26-1.79-2.53-3.57-3.76-5.38-.34-.49-.7-.71-1.27-.69-1.73.04-3.45.01-5.32.01v3.39c0,1.44.01,2.88,0,4.32-.01,1.04-.57,1.72-1.36,1.72-.8,0-1.33-.66-1.33-1.72,0-6.98,0-13.96,0-20.93,0-1.02.46-1.69,1.27-1.69,3.4.02,6.82-.09,10.21.23,2.75.26,4.99,1.81,5.75,4.95.95,3.96-.48,7.48-4.52,8.88-.25.09-.5.17-.89.3"/>
      <path class="cls-1" d="M101.89,28.74c-.02-.31-.04-.9-.1-1.49-.6-6.09-6.23-9.91-11.43-7.75-3.98,1.65-6.2,6.6-5.14,11.48.93,4.29,4.19,7.32,7.93,7.39,4.91.09,8.52-3.78,8.74-9.63M82.2,28.64c0-7.14,4.86-12.51,11.3-12.5,6.41,0,11.18,5.34,11.17,12.5,0,7.1-4.89,12.5-11.32,12.5-6.42,0-11.16-5.31-11.16-12.5"/>
      <path class="cls-1" d="M135.34,29.92v8.09h1.09c3.65,0,7.3,0,10.95,0,.95,0,1.45.47,1.48,1.3.03.81-.47,1.41-1.3,1.41-4.52.02-9.03.02-13.55,0-.98,0-1.42-.61-1.43-1.83-.01-3.47,0-6.95,0-10.43s0-6.62,0-9.93c0-1.53.43-2.01,1.81-2.01,4.25,0,8.5,0,12.74,0,.71,0,1.33.16,1.52,1.04.22,1.01-.36,1.69-1.45,1.69-3.56,0-7.12,0-10.68,0h-1.16v7.89h.97c2.99,0,5.98,0,8.97,0,.24,0,.48-.01.72,0,.77.06,1.24.51,1.25,1.37.01.88-.49,1.33-1.24,1.37-1.1.05-2.21.02-3.32.02-2.12,0-4.25,0-6.37,0h-1.02Z"/>
      <path class="cls-1" d="M178.52,31.6h9.59c-1.59-3.88-3.14-7.65-4.8-11.67-1.66,4.04-3.21,7.83-4.79,11.67M183.36,16.31c1-.06,1.46.59,1.82,1.47,2.6,6.26,5.22,12.5,7.83,18.75.31.74.64,1.48.92,2.24.33.89.08,1.65-.6,2-.66.34-1.41.06-1.79-.79-.69-1.56-1.34-3.14-1.97-4.74-.23-.58-.49-.85-1.12-.84-3.44.04-6.88.03-10.32,0-.57,0-.85.23-1.06.78-.59,1.54-1.22,3.06-1.86,4.58-.42,1.01-1.09,1.36-1.84,1.02-.74-.33-.96-1.14-.53-2.17,2.91-7,5.83-13.99,8.75-20.99.35-.85.87-1.41,1.76-1.31"/>
      <path class="cls-1" d="M118.77,16.25c1.95.07,3.9.74,5.65,2.04.31.23.76.55.79.88.06.55-.02,1.25-.31,1.67-.44.63-1.12.5-1.69.06-1.74-1.35-3.65-2.15-5.79-1.95-.9.08-1.86.33-2.63.81-2.19,1.35-2.18,4.64.04,5.91,1.22.7,2.63,1.01,3.96,1.49,1.39.5,2.83.86,4.16,1.49,1.98.94,3.18,2.6,3.28,5.07.1,2.75-.91,4.85-3.1,6.17-2.65,1.6-5.49,1.53-8.26.55-1.48-.52-2.85-1.46-4.21-2.34-.92-.6-1.08-1.61-.56-2.32.51-.71,1.25-.72,2.12.04,2.42,2.13,5.14,3.03,8.21,2.33,1.78-.41,2.9-1.73,3.07-3.38.16-1.52-.38-2.77-1.75-3.42-1.28-.61-2.66-.94-3.99-1.42-1.44-.52-2.94-.93-4.3-1.63-4-2.04-3.71-8.09-.62-10.46,1.54-1.18,3.63-1.8,5.95-1.58"/>
      <path class="cls-1" d="M163.53,19.3v19.36c0,.3.02.59-.01.88-.09.82-.68,1.39-1.4,1.35-.72-.03-1.27-.62-1.28-1.47-.02-1.51,0-3.01,0-4.52v-15.62h-5.54c-1.39,0-1.98-.42-1.97-1.37.01-.96.63-1.39,1.98-1.39,4.57,0,9.15,0,13.72,0,.24,0,.48-.01.72,0,.8.08,1.3.65,1.26,1.47-.05.88-.55,1.28-1.31,1.28-1.64.02-3.29,0-4.93,0h-1.22"/>
      <path class="cls-1" d="M15.03,11.19c1.17,0,2.33-.01,3.5,0,1.03.01,1.37.36,1.37,1.45.01,2.56.01,5.11,0,7.67,0,1.09-.36,1.49-1.35,1.5-2.33.02-4.66.02-7,0-1.02,0-1.35-.38-1.35-1.47,0-2.59-.01-5.18,0-7.76,0-1.02.31-1.36,1.23-1.38,1.2-.02,2.39,0,3.59,0"/>
      <path class="cls-1" d="M0,27.65c0-1.31.01-2.62,0-3.93-.01-.89.35-1.33,1.18-1.32,2.42.01,4.84.02,7.26,0,.83,0,1.22.43,1.22,1.31,0,2.65.02,5.31,0,7.96,0,.96-.39,1.35-1.29,1.36-2.36.02-4.72.02-7.08,0-.96,0-1.28-.39-1.28-1.44,0-1.31,0-2.62,0-3.93"/>
      <path class="cls-1" d="M19.91,38.86c0,1.28.01,2.56,0,3.83-.01,1.05-.34,1.41-1.31,1.42-2.36.01-4.72.01-7.09,0-.99,0-1.29-.34-1.29-1.41-.01-2.59-.01-5.18,0-7.76,0-1.05.33-1.43,1.29-1.44,2.36-.02,4.72-.02,7.08,0,.97,0,1.31.43,1.32,1.53.01,1.28,0,2.56,0,3.83"/>
      <path class="cls-1" d="M4.89,0C6.05,0,7.22,0,8.38,0c.93,0,1.28.34,1.28,1.32.02,2.65.01,5.31,0,7.96,0,.88-.41,1.32-1.23,1.32-2.42,0-4.84,0-7.26,0C.37,10.6,0,10.15,0,9.25.01,6.6,0,3.95,0,1.29,0,.39.38-.02,1.21,0c1.22.03,2.45,0,3.68,0"/>
      <path class="cls-1" d="M4.76,55.3c-1.17,0-2.33,0-3.5,0-.95,0-1.25-.31-1.26-1.32-.01-2.65,0-5.3,0-7.96,0-.91.41-1.31,1.21-1.31,2.42,0,4.84,0,7.26,0,.77,0,1.18.43,1.19,1.26.02,2.68.01,5.37,0,8.06,0,.87-.39,1.31-1.23,1.29-1.22-.03-2.45,0-3.68,0"/>
    </g>
  </g>
</svg>