<?xml version="1.0" encoding="UTF-8"?>
<svg id="Capa_2" data-name="Capa 2" xmlns="http://www.w3.org/2000/svg" xmlns:xlink="http://www.w3.org/1999/xlink" viewBox="0 0 48 32">
  <defs>
    <style>
      .cls-1 {
        fill: #f59c21;
      }

      .cls-1, .cls-2, .cls-3, .cls-4, .cls-5 {
        stroke-width: 0px;
      }

      .cls-6 {
        clip-path: url(#clippath);
      }

      .cls-2, .cls-7 {
        fill: none;
      }

      .cls-7 {
        stroke: #d6d6d8;
      }

      .cls-3 {
        fill: #e4181b;
      }

      .cls-4 {
        fill: #fff;
      }

      .cls-5 {
        fill: #eb5d1c;
      }
    </style>
    <clipPath id="clippath">
      <rect class="cls-2" width="48" height="32"/>
    </clipPath>
  </defs>
  <g id="Capa_1-2" data-name="Capa 1">
    <g>
      <rect class="cls-4" x=".5" y=".5" width="47" height="31"/>
      <rect class="cls-5" x="18.72" y="7.12" width="10.64" height="17.77"/>
      <g class="cls-6">
        <path class="cls-3" d="M19.79,16c0-3.5,1.57-6.77,4.21-8.88-4.73-3.79-11.63-3.02-15.42,1.71-.05.06-.1.13-.15.19-3.76,4.93-2.94,11.95,1.86,15.87,4,3.2,9.64,3.2,13.71,0-2.65-2.19-4.19-5.45-4.2-8.89h-.01Z"/>
        <path class="cls-1" d="M41.93,16c0,6.27-4.92,11.3-11.07,11.3-2.5,0-4.93-.88-6.86-2.41,4.91-4.01,5.63-11.25,1.62-16.16-.48-.59-1.02-1.13-1.62-1.61,4.73-3.79,11.63-3.03,15.42,1.7.05.07.11.13.16.2,1.55,1.99,2.38,4.45,2.35,6.98M41.65,23v-.44h-.14l-.15.3-.14-.3h-.14v.44h.07v-.37l.14.3h.07l.15-.3v.37h.14ZM40.93,23v-.37h.15v-.07h-.36v.07h.14l.07.37Z"/>
        <rect class="cls-7" x=".5" y=".5" width="47" height="31"/>
      </g>
    </g>
  </g>
</svg>