<?xml version="1.0" encoding="UTF-8"?>
<svg id="Capa_2" data-name="Capa 2" xmlns="http://www.w3.org/2000/svg" xmlns:xlink="http://www.w3.org/1999/xlink" viewBox="0 0 48 32">
  <defs>
    <style>
      .cls-1 {
        fill: #3d4596;
      }

      .cls-1, .cls-2, .cls-3 {
        stroke-width: 0px;
      }

      .cls-4 {
        clip-path: url(#clippath);
      }

      .cls-2, .cls-5 {
        fill: none;
      }

      .cls-5 {
        stroke: #d6d6d8;
      }

      .cls-3 {
        fill: #fff;
      }
    </style>
    <clipPath id="clippath">
      <rect class="cls-2" width="48" height="32"/>
    </clipPath>
  </defs>
  <g id="Capa_1-2" data-name="Capa 1">
    <g>
      <rect class="cls-3" x=".5" y=".5" width="47" height="31"/>
      <g class="cls-4">
        <path class="cls-1" d="M35.97,13.48l.87,4.1h-2.31l1.44-4.1ZM35.6,10.53c-.67,0-1.03.36-1.29,1l-4.06,9.94h2.91l.56-1.66h3.54l.35,1.66h2.56l-2.24-10.94h-2.33ZM20.14,10.53l-2.28,10.94h2.77l2.27-10.94h-2.76ZM6.05,10.53l-.07.35s1.02.19,1.94.57c1.19.43,1.27.69,1.47,1.47l2.18,8.55h2.9l4.5-10.94h-2.9l-2.9,7.44-1.17-6.3c-.07-.67-.65-1.17-1.32-1.14h-4.64.01ZM28.25,10.35c-2.43,0-4.6,1.29-4.6,3.66,0,2.71,3.85,2.9,3.85,4.27,0,.57-.64,1.09-1.75,1.09-1.57,0-2.74-.72-2.74-.72l-.5,2.39s1.35.6,3.14.6c2.66,0,4.74-1.34,4.74-3.75,0-2.87-3.86-3.05-3.86-4.32,0-.45.53-.95,1.63-.95,1.24,0,2.26.53,2.26.53l.49-2.31s-1.1-.49-2.66-.49Z"/>
        <rect class="cls-5" x=".5" y=".5" width="47" height="31"/>
      </g>
    </g>
  </g>
</svg>