<?xml version="1.0" encoding="UTF-8"?>
<svg id="Capa_2" data-name="Capa 2" xmlns="http://www.w3.org/2000/svg" xmlns:xlink="http://www.w3.org/1999/xlink" viewBox="0 0 48 32">
  <defs>
    <style>
      .cls-1 {
        clip-path: url(#clippath);
      }

      .cls-2, .cls-3 {
        fill: none;
      }

      .cls-2, .cls-4, .cls-5, .cls-6, .cls-7 {
        stroke-width: 0px;
      }

      .cls-3 {
        stroke: #d6d6d8;
      }

      .cls-4 {
        fill: #1e9ad7;
      }

      .cls-5 {
        fill: #363982;
      }

      .cls-6 {
        fill: #fff;
      }

      .cls-7 {
        fill: #322d67;
      }
    </style>
    <clipPath id="clippath">
      <rect class="cls-2" width="48" height="32"/>
    </clipPath>
  </defs>
  <g id="Capa_1-2" data-name="Capa 1">
    <g>
      <rect class="cls-6" x=".5" y=".5" width="47" height="31"/>
      <g class="cls-1">
        <path class="cls-5" d="M6.93,20.78l.17-1.08h-.37s-1.78-.01-1.78-.01l1.25-7.99s.01-.04.03-.06c.02-.01.04-.02.07-.02h3c.98,0,1.67.2,2.03.62.17.2.27.4.32.63.06.23.06.51,0,.86v.24l.17.1c.14.08.25.16.34.26.14.17.24.38.28.63.07.68-.07,1.36-.4,1.95-.3.52-.8.89-1.38,1.02-.29.07-.62.11-.98.11h-.23c-.35,0-.65.25-.7.6v.1s-.31,1.9-.31,1.9v.08l-.03.04h-1.48v.02Z"/>
        <path class="cls-4" d="M11.97,13.79l-.03.18c-.4,2.06-1.75,2.78-3.47,2.78h-.88c-.21,0-.39.16-.42.37l-.45,2.9-.13.83c-.02.14.09.26.22.26h1.56c.19,0,.34-.13.37-.32l.02-.08.3-1.9v-.1c.03-.19.19-.33.38-.33h.23c1.51,0,2.7-.62,3.04-2.43.14-.75.07-1.38-.31-1.83-.12-.14-.27-.25-.43-.33"/>
        <path class="cls-7" d="M11.56,13.62c-.13-.04-.26-.07-.39-.09-.23-.04-.5-.05-.77-.05h-2.35c-.19,0-.34.14-.37.32l-.5,3.22v.1c.02-.21.2-.37.41-.37h.88c1.72,0,3.07-.72,3.47-2.78l.03-.18c-.13-.07-.27-.13-.41-.17"/>
        <path class="cls-5" d="M31.18,15.7h-1.01c-.1,0-.19.04-.25.12l-1.4,2.1-.6-2.01c-.04-.13-.15-.22-.28-.22h-1c-.12,0-.2.12-.16.24l1.12,3.35-1.05,1.52c-.09.12,0,.28.14.28h1.01c.1,0,.19-.05.25-.13l3.38-4.98c.08-.12,0-.28-.15-.28h0ZM24.38,17.7c-.1.59-.55.98-1.14.98-.3,0-.53-.1-.68-.27-.16-.21-.22-.48-.16-.73.1-.58.56-1,1.14-1,.29,0,.52.1.67.29.16.21.22.47.17.73M25.8,15.7h-1.02c-.08,0-.15.06-.17.14l-.05.3-.07-.11c-.22-.33-.7-.44-1.2-.44-1.11,0-2.07.87-2.25,2.08-.1.6.04,1.18.38,1.58.3.37.75.53,1.27.53.9,0,1.4-.6,1.4-.6l-.04.3c-.02.1.06.2.17.2h.91c.15,0,.28-.1.3-.25l.54-3.53c.01-.1-.06-.19-.16-.2,0,0-.01,0-.02,0h0ZM19.72,15.72c-.11.77-.7.77-1.25.77h-.32l.22-1.44c0-.09.09-.16.18-.16h.14c.38,0,.74,0,.93.23.11.13.14.33.1.6M19.48,13.7h-2.11c-.15,0-.28.1-.3.25l-.85,5.53c-.02.1.07.2.17.2h1.01c.15,0,.27-.1.3-.25l.22-1.49c.02-.15.15-.25.3-.25h.66c1.4,0,2.2-.69,2.4-2.05.1-.6,0-1.06-.26-1.4-.3-.35-.83-.54-1.54-.54M7.68,13.8c.03-.18.18-.32.37-.32h2.35c.42,0,.84.06,1.25.17.11.04.22.08.32.14.12-.77,0-1.28-.4-1.76-.45-.51-1.26-.74-2.29-.74h-3c-.21,0-.38.16-.41.37l-1.25,8.06c-.03.16.1.3.25.3h1.85l.46-3,.5-3.22Z"/>
        <path class="cls-4" d="M42.06,13.85l-.87,5.63c-.02.1.07.2.18.2h.87c.14,0,.27-.11.29-.25l.85-5.52c.02-.1-.05-.19-.15-.21,0,0-.01,0-.02,0h-.98c-.08,0-.16.07-.17.15M39.46,17.7c-.1.59-.56.98-1.15.98-.29,0-.52-.1-.68-.27-.15-.21-.21-.48-.15-.73.09-.58.55-1,1.13-1,.29,0,.52.1.67.29.16.2.23.47.18.73M40.87,15.7h-1.02c-.08,0-.15.06-.17.14l-.04.3-.07-.11c-.22-.33-.71-.44-1.2-.44-1.12,0-2.07.87-2.26,2.08-.1.6.04,1.18.38,1.58.3.37.75.53,1.27.53.9,0,1.4-.6,1.4-.6l-.04.3c-.02.1.06.2.17.2h.91c.15,0,.28-.1.3-.25l.54-3.53c.01-.1-.06-.19-.16-.2,0,0,0,0-.01,0ZM34.79,15.72c-.11.77-.7.77-1.25.77h-.32l.22-1.44c0-.09.09-.16.18-.16h.14c.39,0,.75,0,.93.23.11.13.15.33.1.6M34.55,13.7h-2.11c-.15,0-.27.1-.3.25l-.85,5.53c-.01.1.07.2.18.2h1.08c.1,0,.18-.07.2-.17l.25-1.57c.02-.14.15-.25.29-.25h.66c1.4,0,2.2-.69,2.4-2.05.1-.6,0-1.06-.26-1.4-.3-.35-.83-.54-1.54-.54"/>
        <rect class="cls-3" x=".5" y=".5" width="47" height="31"/>
      </g>
    </g>
  </g>
</svg>